<?xml version="1.0" encoding="UTF-8"?>
<!DOCTYPE svg PUBLIC "-//W3C//DTD SVG 1.1//EN" "http://www.w3.org/Graphics/SVG/1.1/DTD/svg11.dtd">
<svg xmlns="http://www.w3.org/2000/svg" version="1.1" width="492px" height="507px" style="shape-rendering:geometricPrecision; text-rendering:geometricPrecision; image-rendering:optimizeQuality; fill-rule:evenodd; clip-rule:evenodd" xmlns:xlink="http://www.w3.org/1999/xlink">
<g><path style="opacity:0.998" fill="#bf902a" d="M 421.5,35.5 C 422.035,37.4456 423.368,38.4456 425.5,38.5C 427.833,40.1667 429.833,42.1667 431.5,44.5C 431.427,46.0269 432.094,47.0269 433.5,47.5C 433.427,49.0269 434.094,50.0269 435.5,50.5C 435.427,52.0269 436.094,53.0269 437.5,53.5C 438.537,54.9303 439.204,56.597 439.5,58.5C 439.41,61.1522 440.076,63.4855 441.5,65.5C 443.614,77.1501 442.114,88.4834 437,99.5C 426.183,122.483 411.349,142.483 392.5,159.5C 372.744,142.992 357.577,122.992 347,99.5C 340.739,85.3819 340.072,71.0485 345,56.5C 346.582,52.106 349.082,48.4393 352.5,45.5C 353.906,45.0269 354.573,44.0269 354.5,42.5C 354.833,41.5 355.5,40.8333 356.5,40.5C 358.027,40.573 359.027,39.9063 359.5,38.5C 365.332,32.9172 372.332,29.4172 380.5,28C 395.247,24.9851 408.913,27.4851 421.5,35.5 Z M 407.5,52.5 C 407.973,53.9063 408.973,54.573 410.5,54.5C 421.221,64.6459 423.221,76.3126 416.5,89.5C 414.738,90.2623 413.738,91.5956 413.5,93.5C 399.167,105.5 384.833,105.5 370.5,93.5C 370.262,91.5956 369.262,90.2623 367.5,89.5C 359.62,72.5141 363.953,59.6808 380.5,51C 389.737,47.431 398.737,47.931 407.5,52.5 Z"/></g>
<g><path style="opacity:0.902" fill="#564218" d="M 421.5,35.5 C 423.23,36.0256 424.564,37.0256 425.5,38.5C 423.368,38.4456 422.035,37.4456 421.5,35.5 Z"/></g>
<g><path style="opacity:0.682" fill="#5a4418" d="M 359.5,38.5 C 359.027,39.9063 358.027,40.573 356.5,40.5C 356.973,39.0937 357.973,38.427 359.5,38.5 Z"/></g>
<g><path style="opacity:0.675" fill="#513d17" d="M 354.5,42.5 C 354.573,44.0269 353.906,45.0269 352.5,45.5C 352.427,43.9731 353.094,42.9731 354.5,42.5 Z"/></g>
<g><path style="opacity:0.647" fill="#4a3815" d="M 431.5,44.5 C 432.906,44.9731 433.573,45.9731 433.5,47.5C 432.094,47.0269 431.427,46.0269 431.5,44.5 Z"/></g>
<g><path style="opacity:0.404" fill="#503d15" d="M 433.5,47.5 C 434.906,47.9731 435.573,48.9731 435.5,50.5C 434.094,50.0269 433.427,49.0269 433.5,47.5 Z"/></g>
<g><path style="opacity:0.298" fill="#433312" d="M 435.5,50.5 C 436.906,50.9731 437.573,51.9731 437.5,53.5C 436.094,53.0269 435.427,52.0269 435.5,50.5 Z"/></g>
<g><path style="opacity:0.471" fill="#544016" d="M 407.5,52.5 C 409.027,52.427 410.027,53.0937 410.5,54.5C 408.973,54.573 407.973,53.9063 407.5,52.5 Z"/></g>
<g><path style="opacity:0.682" fill="#71561a" d="M 439.5,58.5 C 440.924,60.5145 441.59,62.8478 441.5,65.5C 440.076,63.4855 439.41,61.1522 439.5,58.5 Z"/></g>
<g><path style="opacity:0.714" fill="#4e3b16" d="M 367.5,89.5 C 369.262,90.2623 370.262,91.5956 370.5,93.5C 368.738,92.7377 367.738,91.4044 367.5,89.5 Z"/></g>
<g><path style="opacity:0.737" fill="#554117" d="M 416.5,89.5 C 416.262,91.4044 415.262,92.7377 413.5,93.5C 413.738,91.5956 414.738,90.2623 416.5,89.5 Z"/></g>
<g><path style="opacity:0.999" fill="#c2922b" d="M 174.5,139.5 C 174.821,141.048 175.821,141.715 177.5,141.5C 187.807,147.474 196.14,155.474 202.5,165.5C 202.427,167.027 203.094,168.027 204.5,168.5C 212.019,179.566 215.352,191.9 214.5,205.5C 214.617,221.322 211.117,236.322 204,250.5C 186.594,284.891 163.594,314.891 135,340.5C 132.672,339.336 130.838,337.67 129.5,335.5C 128.738,333.738 127.404,332.738 125.5,332.5C 109.981,317.654 96.3144,301.32 84.5,283.5C 84.7148,281.821 84.0481,280.821 82.5,280.5C 79.5968,276.37 76.9301,272.037 74.5,267.5C 74.7148,265.821 74.0481,264.821 72.5,264.5C 61.9669,246.065 55.9669,226.232 54.5,205C 58.1939,166.303 78.8606,141.969 116.5,132C 136.77,127.989 156.104,130.489 174.5,139.5 Z M 164.5,174.5 C 164.973,175.906 165.973,176.573 167.5,176.5C 169.115,179.45 171.115,182.116 173.5,184.5C 173.932,185.71 174.599,186.71 175.5,187.5C 185.825,214.688 177.825,234.522 151.5,247C 130.372,253.386 112.372,248.553 97.5,232.5C 97.573,230.973 96.9063,229.973 95.5,229.5C 95.573,227.973 94.9063,226.973 93.5,226.5C 84.0372,197.594 93.3705,177.427 121.5,166C 137.227,162.246 151.56,165.079 164.5,174.5 Z"/></g>
<g><path style="opacity:0.298" fill="#3f3011" d="M 348.5,139.5 C 348.917,138.876 349.584,138.543 350.5,138.5C 351.713,138.747 352.38,139.414 352.5,140.5C 351.292,139.766 349.959,139.433 348.5,139.5 Z"/></g>
<g><path style="opacity:0.998" fill="#c0912a" d="M 348.5,139.5 C 349.959,139.433 351.292,139.766 352.5,140.5C 359.819,147.821 366.819,155.488 373.5,163.5C 343.332,172.46 312.998,180.96 282.5,189C 274.444,191.86 271.444,197.36 273.5,205.5C 273.833,207.833 275.167,209.167 277.5,209.5C 304.003,231.166 330.67,252.666 357.5,274C 375.543,294.917 374.543,314.917 354.5,334C 349.817,337.728 344.484,339.561 338.5,339.5C 280.157,340.163 222.157,339.496 164.5,337.5C 169.13,330.571 174.464,324.237 180.5,318.5C 181.906,318.027 182.573,317.027 182.5,315.5C 182.953,314.542 183.619,313.708 184.5,313C 233.5,312.667 282.5,312.333 331.5,312C 337.287,309.129 339.287,304.629 337.5,298.5C 337.715,296.821 337.048,295.821 335.5,295.5C 331.806,291.14 327.806,287.14 323.5,283.5C 323.027,282.094 322.027,281.427 320.5,281.5C 316.748,278.959 313.415,275.959 310.5,272.5C 310.027,271.094 309.027,270.427 307.5,270.5C 305.833,269.5 304.5,268.167 303.5,266.5C 303.027,265.094 302.027,264.427 300.5,264.5C 298.833,263.5 297.5,262.167 296.5,260.5C 296.027,259.094 295.027,258.427 293.5,258.5C 291.833,257.5 290.5,256.167 289.5,254.5C 289.027,253.094 288.027,252.427 286.5,252.5C 284.833,251.5 283.5,250.167 282.5,248.5C 282.027,247.094 281.027,246.427 279.5,246.5C 277.167,244.833 275.167,242.833 273.5,240.5C 273.027,239.094 272.027,238.427 270.5,238.5C 263.536,233.203 257.202,227.203 251.5,220.5C 250.415,218.413 248.749,217.08 246.5,216.5C 237.398,203.439 237.231,190.106 246,176.5C 253.1,168.034 261.933,162.201 272.5,159C 297.773,152.182 323.107,145.682 348.5,139.5 Z"/></g>
<g><path style="opacity:0.859" fill="#5a4519" d="M 174.5,139.5 C 175.71,139.932 176.71,140.599 177.5,141.5C 175.821,141.715 174.821,141.048 174.5,139.5 Z"/></g>
<g><path style="opacity:0.408" fill="#503d15" d="M 202.5,165.5 C 203.906,165.973 204.573,166.973 204.5,168.5C 203.094,168.027 202.427,167.027 202.5,165.5 Z"/></g>
<g><path style="opacity:0.671" fill="#4e3b16" d="M 164.5,174.5 C 166.027,174.427 167.027,175.094 167.5,176.5C 165.973,176.573 164.973,175.906 164.5,174.5 Z"/></g>
<g><path style="opacity:0.871" fill="#5c4619" d="M 173.5,184.5 C 175.048,184.821 175.715,185.821 175.5,187.5C 174.599,186.71 173.932,185.71 173.5,184.5 Z"/></g>
<g><path style="opacity:0.765" fill="#4e3c16" d="M 273.5,205.5 C 275.167,206.5 276.5,207.833 277.5,209.5C 275.167,209.167 273.833,207.833 273.5,205.5 Z"/></g>
<g><path style="opacity:0.686" fill="#483715" d="M 246.5,216.5 C 248.749,217.08 250.415,218.413 251.5,220.5C 249.251,219.92 247.585,218.587 246.5,216.5 Z"/></g>
<g><path style="opacity:0.443" fill="#554115" d="M 93.5,226.5 C 94.9063,226.973 95.573,227.973 95.5,229.5C 94.0937,229.027 93.427,228.027 93.5,226.5 Z"/></g>
<g><path style="opacity:0.478" fill="#564116" d="M 95.5,229.5 C 96.9063,229.973 97.573,230.973 97.5,232.5C 96.0937,232.027 95.427,231.027 95.5,229.5 Z"/></g>
<g><path style="opacity:0.682" fill="#4f3d16" d="M 270.5,238.5 C 272.027,238.427 273.027,239.094 273.5,240.5C 271.973,240.573 270.973,239.906 270.5,238.5 Z"/></g>
<g><path style="opacity:0.6" fill="#483714" d="M 279.5,246.5 C 281.027,246.427 282.027,247.094 282.5,248.5C 280.973,248.573 279.973,247.906 279.5,246.5 Z"/></g>
<g><path style="opacity:0.702" fill="#503d16" d="M 286.5,252.5 C 288.027,252.427 289.027,253.094 289.5,254.5C 287.973,254.573 286.973,253.906 286.5,252.5 Z"/></g>
<g><path style="opacity:0.675" fill="#513e17" d="M 293.5,258.5 C 295.027,258.427 296.027,259.094 296.5,260.5C 294.973,260.573 293.973,259.906 293.5,258.5 Z"/></g>
<g><path style="opacity:0.851" fill="#564218" d="M 72.5,264.5 C 74.0481,264.821 74.7148,265.821 74.5,267.5C 73.5987,266.71 72.9321,265.71 72.5,264.5 Z"/></g>
<g><path style="opacity:0.725" fill="#533f17" d="M 300.5,264.5 C 302.027,264.427 303.027,265.094 303.5,266.5C 301.973,266.573 300.973,265.906 300.5,264.5 Z"/></g>
<g><path style="opacity:0.643" fill="#4c3a15" d="M 307.5,270.5 C 309.027,270.427 310.027,271.094 310.5,272.5C 308.973,272.573 307.973,271.906 307.5,270.5 Z"/></g>
<g><path style="opacity:0.878" fill="#5b4519" d="M 82.5,280.5 C 84.0481,280.821 84.7148,281.821 84.5,283.5C 83.5987,282.71 82.9321,281.71 82.5,280.5 Z"/></g>
<g><path style="opacity:0.584" fill="#473614" d="M 320.5,281.5 C 322.027,281.427 323.027,282.094 323.5,283.5C 321.973,283.573 320.973,282.906 320.5,281.5 Z"/></g>
<g><path style="opacity:0.89" fill="#5d4719" d="M 335.5,295.5 C 337.048,295.821 337.715,296.821 337.5,298.5C 336.599,297.71 335.932,296.71 335.5,295.5 Z"/></g>
<g><path style="opacity:0.565" fill="#453514" d="M 182.5,315.5 C 182.573,317.027 181.906,318.027 180.5,318.5C 180.427,316.973 181.094,315.973 182.5,315.5 Z"/></g>
<g><path style="opacity:0.675" fill="#4a3915" d="M 125.5,332.5 C 127.404,332.738 128.738,333.738 129.5,335.5C 127.596,335.262 126.262,334.262 125.5,332.5 Z"/></g>
<g><path style="opacity:0.471" fill="#654c16" d="M 164.5,337.5 C 222.157,339.496 280.157,340.163 338.5,339.5C 279.999,340.831 221.332,340.831 162.5,339.5C 162.855,338.478 163.522,337.811 164.5,337.5 Z"/></g>
<g><path style="opacity:0.635" fill="#614a17" d="M 126.5,381.5 C 124.379,381.325 122.379,381.659 120.5,382.5C 120.97,381.307 121.97,380.64 123.5,380.5C 124.726,380.52 125.726,380.853 126.5,381.5 Z"/></g>
<g><path style="opacity:0.995" fill="#b78a29" d="M 126.5,381.5 C 128.017,381.511 129.184,382.177 130,383.5C 132.403,387.635 134.237,391.968 135.5,396.5C 135.66,398.153 136.326,399.486 137.5,400.5C 140.499,410.495 143.499,420.495 146.5,430.5C 147.405,431.964 147.405,433.298 146.5,434.5C 146.5,435.167 146.5,435.833 146.5,436.5C 146.768,438.099 146.434,439.432 145.5,440.5C 143.621,439.659 141.621,439.325 139.5,439.5C 138.542,439.047 137.708,438.381 137,437.5C 135.471,432.94 133.304,428.773 130.5,425C 126.911,422.369 122.911,421.203 118.5,421.5C 116.821,421.285 115.821,421.952 115.5,423.5C 112.628,424.25 110.628,425.917 109.5,428.5C 107.208,429.686 104.874,429.686 102.5,428.5C 101.662,428.158 101.328,427.492 101.5,426.5C 101.5,424.833 101.5,423.167 101.5,421.5C 101.5,421.167 101.5,420.833 101.5,420.5C 108.343,408.146 114.677,395.48 120.5,382.5C 122.379,381.659 124.379,381.325 126.5,381.5 Z M 124.5,397.5 C 126.332,401.645 127.998,405.978 129.5,410.5C 129.167,410.833 128.833,411.167 128.5,411.5C 125.192,410.605 121.859,409.771 118.5,409C 120.418,405.044 122.418,401.21 124.5,397.5 Z"/></g>
<g><path style="opacity:0.996" fill="#ba8d29" d="M 185.5,382.5 C 185.427,384.027 186.094,385.027 187.5,385.5C 191.24,388.599 192.407,392.599 191,397.5C 186.603,406.564 180.103,413.731 171.5,419C 178.757,420.981 186.09,422.648 193.5,424C 197.311,425.07 200.644,426.903 203.5,429.5C 203.662,431.527 203.495,433.527 203,435.5C 202.617,436.056 202.117,436.389 201.5,436.5C 197.269,436.058 192.936,436.058 188.5,436.5C 178.818,436.121 169.652,433.788 161,429.5C 160.997,433.436 160.164,437.103 158.5,440.5C 155.81,441.602 153.143,441.436 150.5,440C 149.177,439.184 148.511,438.017 148.5,436.5C 148.5,435.833 148.5,435.167 148.5,434.5C 148.5,427.167 148.5,419.833 148.5,412.5C 148.664,407.466 148.331,402.466 147.5,397.5C 147.648,394.37 148.982,391.87 151.5,390C 159.569,384.716 168.402,381.55 178,380.5C 180.744,380.41 183.244,381.077 185.5,382.5 Z M 173.5,394.5 C 175.099,394.232 176.432,394.566 177.5,395.5C 171.862,400.967 166.029,406.301 160,411.5C 159.856,407.496 160.189,403.496 161,399.5C 165.059,397.536 169.226,395.87 173.5,394.5 Z"/></g>
<g><path style="opacity:0.993" fill="#b78a28" d="M 232.5,385.5 C 232.427,387.027 233.094,388.027 234.5,388.5C 238.162,394.226 240.496,400.559 241.5,407.5C 241.41,410.152 242.076,412.485 243.5,414.5C 245.231,421.025 247.565,427.358 250.5,433.5C 249.341,436.481 248.341,439.481 247.5,442.5C 246.596,441.791 246.263,440.791 246.5,439.5C 244.833,439.5 243.167,439.5 241.5,439.5C 238.317,436.177 236.15,432.177 235,427.5C 229.281,421.018 222.781,420.018 215.5,424.5C 213.632,423.326 212.632,423.993 212.5,426.5C 212.461,427.583 212.127,428.583 211.5,429.5C 209.364,430.793 207.364,430.793 205.5,429.5C 205.068,428.29 204.401,427.29 203.5,426.5C 202.402,425.399 202.235,424.066 203,422.5C 210.23,409.163 216.897,395.497 223,381.5C 227.711,379.357 230.877,380.691 232.5,385.5 Z M 226.5,398.5 C 227.167,398.833 227.833,399.167 228.5,399.5C 229.101,402.968 230.101,406.301 231.5,409.5C 231.672,410.492 231.338,411.158 230.5,411.5C 227.222,410.609 223.889,409.776 220.5,409C 222.385,405.391 224.385,401.891 226.5,398.5 Z"/></g>
<g><path style="opacity:0.995" fill="#b68928" d="M 335.5,416.5 C 335.41,419.152 336.076,421.485 337.5,423.5C 338.833,426.167 340.167,428.833 341.5,431.5C 341.557,432.609 341.89,433.609 342.5,434.5C 341.508,434.328 340.842,434.662 340.5,435.5C 339.987,439.553 339.154,443.553 338,447.5C 337.503,445.19 337.337,442.857 337.5,440.5C 334.215,440.731 331.715,439.397 330,436.5C 328.485,432.808 326.985,429.141 325.5,425.5C 325.027,424.094 324.027,423.427 322.5,423.5C 317.795,420.952 313.129,420.952 308.5,423.5C 306.128,421.852 304.794,422.519 304.5,425.5C 304.178,429.976 301.844,431.476 297.5,430C 296.177,429.184 295.511,428.017 295.5,426.5C 295.5,424.5 295.5,422.5 295.5,420.5C 298.478,416.557 300.978,412.223 303,407.5C 306.576,398.685 310.409,390.019 314.5,381.5C 319.23,379.615 322.73,380.949 325,385.5C 330.401,395.202 333.901,405.535 335.5,416.5 Z M 312.5,409.5 C 313.877,405.08 316.044,401.08 319,397.5C 320.509,402.027 322.009,406.527 323.5,411C 319.864,410.681 316.197,410.181 312.5,409.5 Z"/></g>
<g><path style="opacity:0.997" fill="#b98c29" d="M 395.5,436.5 C 390.99,436.095 386.324,436.095 381.5,436.5C 371.998,436.067 362.998,433.733 354.5,429.5C 354.501,432.234 354.334,435.234 354,438.5C 349.928,442.328 346.095,441.995 342.5,437.5C 342.5,436.5 342.5,435.5 342.5,434.5C 341.89,433.609 341.557,432.609 341.5,431.5C 341.969,420.139 341.969,408.806 341.5,397.5C 342.082,393.08 344.415,389.913 348.5,388C 355.761,383.691 363.594,381.191 372,380.5C 377.347,380.507 381.347,382.841 384,387.5C 385.95,394.973 384.284,401.64 379,407.5C 374.454,411.714 369.621,415.547 364.5,419C 374.719,420.909 384.719,423.576 394.5,427C 397.979,429.995 398.312,433.161 395.5,436.5 Z M 366.5,394.5 C 368.199,394.34 369.866,394.506 371.5,395C 365.969,400.866 360.135,406.366 354,411.5C 353.342,407.428 353.675,403.428 355,399.5C 358.876,397.716 362.709,396.049 366.5,394.5 Z"/></g>
<g><path style="opacity:0.997" fill="#b68928" d="M 431.5,396.5 C 431.66,398.153 432.326,399.486 433.5,400.5C 436.394,411.734 440.06,422.734 444.5,433.5C 443.191,436.083 442.191,438.75 441.5,441.5C 439.886,439.925 437.886,439.259 435.5,439.5C 434.542,439.047 433.708,438.381 433,437.5C 431.598,428.098 426.265,422.765 417,421.5C 414.078,421.548 411.578,422.548 409.5,424.5C 408.105,423.185 407.105,423.519 406.5,425.5C 406.567,426.959 406.234,428.292 405.5,429.5C 403.097,429.552 400.764,429.219 398.5,428.5C 396.674,426.545 396.174,424.212 397,421.5C 404.248,408.171 411.081,394.671 417.5,381C 420.85,380.07 423.683,380.903 426,383.5C 428.397,387.624 430.231,391.957 431.5,396.5 Z M 420.5,397.5 C 422.73,401.51 424.397,405.843 425.5,410.5C 425.167,410.833 424.833,411.167 424.5,411.5C 421.192,410.605 417.859,409.771 414.5,409C 416.653,405.192 418.653,401.358 420.5,397.5 Z"/></g>
<g><path style="opacity:0.996" fill="#bc8e29" d="M 91.5,383.5 C 91.427,385.027 92.0937,386.027 93.5,386.5C 95.9399,393.671 94.2732,399.838 88.5,405C 95.937,407.601 100.27,412.767 101.5,420.5C 100.833,420.5 100.5,420.833 100.5,421.5C 99.6618,421.842 99.3284,422.508 99.5,423.5C 97.3157,427.779 93.9824,430.946 89.5,433C 81.6802,436.718 73.5135,439.218 65,440.5C 63.6904,438.048 62.5237,435.548 61.5,433C 62.4637,430.353 61.9637,427.853 60,425.5C 59.2139,418.16 58.3805,410.827 57.5,403.5C 53.832,400.803 52.6654,397.136 54,392.5C 57.1667,390.667 59.6667,388.167 61.5,385C 62.7932,384.51 64.1266,384.343 65.5,384.5C 66.0968,385.139 66.9302,385.472 68,385.5C 69.6991,385.613 70.8658,384.947 71.5,383.5C 78.2833,380.926 84.95,380.926 91.5,383.5 Z M 71.5,400.5 C 70.596,399.791 70.2627,398.791 70.5,397.5C 82.1177,393.242 82.451,394.242 71.5,400.5 Z M 77.5,415.5 C 80.1317,416.327 82.7983,417.16 85.5,418C 81.4455,420.694 77.1122,422.861 72.5,424.5C 71.6376,423.234 70.9709,421.901 70.5,420.5C 70.5,419.167 70.5,417.833 70.5,416.5C 73.0593,416.802 75.3926,416.468 77.5,415.5 Z"/></g>
<g><path style="opacity:0.997" fill="#ba8d29" d="M 294.5,417.5 C 294.634,419.292 294.301,420.958 293.5,422.5C 293.649,423.552 293.483,424.552 293,425.5C 290.106,428.361 286.939,430.861 283.5,433C 277.748,435.713 271.748,437.547 265.5,438.5C 263.05,438.702 260.717,438.369 258.5,437.5C 257.414,437.38 256.747,436.713 256.5,435.5C 255.448,433.777 255.448,432.11 256.5,430.5C 255.469,429.3 254.635,427.966 254,426.5C 253.189,418.83 252.355,411.164 251.5,403.5C 249.833,402.333 248.167,401.167 246.5,400C 247.274,397.595 247.774,395.095 248,392.5C 251.167,390.667 253.667,388.167 255.5,385C 262.483,383.728 269.483,382.561 276.5,381.5C 286.565,381.609 290.399,386.609 288,396.5C 286.591,399.582 284.758,402.415 282.5,405C 288.747,407.079 292.747,411.246 294.5,417.5 Z M 271.5,394.5 C 273.379,394.393 273.712,394.893 272.5,396C 270.083,397.626 267.583,399.126 265,400.5C 264.316,399.216 264.483,398.049 265.5,397C 267.611,396.155 269.611,395.322 271.5,394.5 Z M 271.5,415.5 C 274.132,416.327 276.798,417.16 279.5,418C 275.446,420.694 271.112,422.861 266.5,424.5C 265.051,422.389 264.051,420.056 263.5,417.5C 266.306,416.832 268.972,416.166 271.5,415.5 Z"/></g>
<g><path style="opacity:0.624" fill="#483714" d="M 185.5,382.5 C 186.906,382.973 187.573,383.973 187.5,385.5C 186.094,385.027 185.427,384.027 185.5,382.5 Z"/></g>
<g><path style="opacity:0.922" fill="#644c1a" d="M 71.5,383.5 C 70.8658,384.947 69.6991,385.613 68,385.5C 66.9302,385.472 66.0968,385.139 65.5,384.5C 67.5648,384.483 69.5648,384.15 71.5,383.5 Z"/></g>
<g><path style="opacity:0.663" fill="#4c3a15" d="M 91.5,383.5 C 92.9063,383.973 93.573,384.973 93.5,386.5C 92.0937,386.027 91.427,385.027 91.5,383.5 Z"/></g>
<g><path style="opacity:0.298" fill="#423211" d="M 232.5,385.5 C 233.906,385.973 234.573,386.973 234.5,388.5C 233.094,388.027 232.427,387.027 232.5,385.5 Z"/></g>
<g><path style="opacity:0.286" fill="#523e12" d="M 173.5,394.5 C 175.035,393.212 176.701,393.212 178.5,394.5C 178.376,395.107 178.043,395.44 177.5,395.5C 176.432,394.566 175.099,394.232 173.5,394.5 Z"/></g>
<g><path style="opacity:0.047" fill="#1e1808" d="M 228.5,399.5 C 227.833,399.167 227.167,398.833 226.5,398.5C 227.301,396.207 227.968,396.54 228.5,399.5 Z"/></g>
<g><path style="opacity:0.22" fill="#37290e" d="M 135.5,396.5 C 137.104,397.287 137.771,398.62 137.5,400.5C 136.326,399.486 135.66,398.153 135.5,396.5 Z"/></g>
<g><path style="opacity:0.31" fill="#433311" d="M 431.5,396.5 C 433.104,397.287 433.771,398.62 433.5,400.5C 432.326,399.486 431.66,398.153 431.5,396.5 Z"/></g>
<g><path style="opacity:0.294" fill="#43320f" d="M 70.5,397.5 C 70.2627,398.791 70.596,399.791 71.5,400.5C 70.528,401.751 69.8614,401.418 69.5,399.5C 69.5427,398.584 69.8761,397.917 70.5,397.5 Z"/></g>
<g><path style="opacity:0.231" fill="#463410" d="M 231.5,409.5 C 232.776,410.386 232.776,411.386 231.5,412.5C 230.893,412.376 230.56,412.043 230.5,411.5C 231.338,411.158 231.672,410.492 231.5,409.5 Z"/></g>
<g><path style="opacity:0.635" fill="#674e19" d="M 241.5,407.5 C 242.924,409.515 243.59,411.848 243.5,414.5C 242.076,412.485 241.41,410.152 241.5,407.5 Z"/></g>
<g><path style="opacity:0.408" fill="#413111" d="M 77.5,415.5 C 75.3926,416.468 73.0593,416.802 70.5,416.5C 70.5,417.833 70.5,419.167 70.5,420.5C 69.5489,419.081 69.2155,417.415 69.5,415.5C 72.1667,415.5 74.8333,415.5 77.5,415.5 Z"/></g>
<g><path style="opacity:0.208" fill="#2e230d" d="M 118.5,421.5 C 117.71,422.401 116.71,423.068 115.5,423.5C 115.821,421.952 116.821,421.285 118.5,421.5 Z"/></g>
<g><path style="opacity:0.276" fill="#30240c" d="M 100.5,421.5 C 100.833,421.5 101.167,421.5 101.5,421.5C 101.5,423.167 101.5,424.833 101.5,426.5C 100.833,425.5 100.167,424.5 99.5,423.5C 99.3284,422.508 99.6618,421.842 100.5,421.5 Z"/></g>
<g><path style="opacity:0.682" fill="#6c511a" d="M 335.5,416.5 C 336.924,418.515 337.59,420.848 337.5,423.5C 336.076,421.485 335.41,419.152 335.5,416.5 Z"/></g>
<g><path style="opacity:0.447" fill="#3a2c0f" d="M 294.5,417.5 C 295.404,418.209 295.737,419.209 295.5,420.5C 295.5,422.5 295.5,424.5 295.5,426.5C 294.833,425.167 294.167,423.833 293.5,422.5C 294.301,420.958 294.634,419.292 294.5,417.5 Z"/></g>
<g><path style="opacity:0.6" fill="#564116" d="M 308.5,423.5 C 307.713,425.104 306.38,425.771 304.5,425.5C 304.794,422.519 306.128,421.852 308.5,423.5 Z"/></g>
<g><path style="opacity:0.663" fill="#523e16" d="M 322.5,423.5 C 324.027,423.427 325.027,424.094 325.5,425.5C 323.973,425.573 322.973,424.906 322.5,423.5 Z"/></g>
<g><path style="opacity:0.078" fill="#1e1707" d="M 215.5,424.5 C 214.71,425.401 213.71,426.068 212.5,426.5C 212.632,423.993 213.632,423.326 215.5,424.5 Z"/></g>
<g><path style="opacity:0.031" fill="#211908" d="M 409.5,424.5 C 408.791,425.404 407.791,425.737 406.5,425.5C 407.105,423.519 408.105,423.185 409.5,424.5 Z"/></g>
<g><path style="opacity:0.004" fill="#0b0701" d="M 203.5,426.5 C 204.401,427.29 205.068,428.29 205.5,429.5C 204.833,429.5 204.167,429.5 203.5,429.5C 203.5,428.5 203.5,427.5 203.5,426.5 Z"/></g>
<g><path style="opacity:0.706" fill="#634b18" d="M 102.5,428.5 C 104.874,429.686 107.208,429.686 109.5,428.5C 109.03,429.693 108.03,430.36 106.5,430.5C 104.645,430.66 103.312,429.993 102.5,428.5 Z"/></g>
<g><path style="opacity:0.702" fill="#695019" d="M 398.5,428.5 C 400.764,429.219 403.097,429.552 405.5,429.5C 404.726,430.147 403.726,430.48 402.5,430.5C 400.645,430.66 399.312,429.993 398.5,428.5 Z"/></g>
<g><path style="opacity:0.722" fill="#6c5219" d="M 148.5,412.5 C 148.5,419.833 148.5,427.167 148.5,434.5C 147.833,434.5 147.167,434.5 146.5,434.5C 147.405,433.298 147.405,431.964 146.5,430.5C 147.167,424.5 147.833,418.5 148.5,412.5 Z"/></g>
<g><path style="opacity:0.365" fill="#29200c" d="M 340.5,435.5 C 340.842,434.662 341.508,434.328 342.5,434.5C 342.5,435.5 342.5,436.5 342.5,437.5C 341.833,436.833 341.167,436.167 340.5,435.5 Z"/></g>
<g><path style="opacity:0.075" fill="#1f1807" d="M 146.5,434.5 C 147.167,434.5 147.833,434.5 148.5,434.5C 148.5,435.167 148.5,435.833 148.5,436.5C 147.833,436.5 147.167,436.5 146.5,436.5C 146.5,435.833 146.5,435.167 146.5,434.5 Z"/></g>
<g><path style="opacity:0.478" fill="#5c4615" d="M 201.5,436.5 C 197.167,437.833 192.833,437.833 188.5,436.5C 192.936,436.058 197.269,436.058 201.5,436.5 Z"/></g>
<g><path style="opacity:0.482" fill="#594315" d="M 395.5,436.5 C 390.833,437.833 386.167,437.833 381.5,436.5C 386.324,436.095 390.99,436.095 395.5,436.5 Z"/></g>
<g><path style="opacity:0.561" fill="#6e5318" d="M 258.5,437.5 C 260.717,438.369 263.05,438.702 265.5,438.5C 263.444,439.216 261.277,439.883 259,440.5C 258.517,439.552 258.351,438.552 258.5,437.5 Z"/></g>
<g><path style="opacity:0.703" fill="#5e4717" d="M 139.5,439.5 C 141.621,439.325 143.621,439.659 145.5,440.5C 144.213,449.714 143.546,449.714 143.5,440.5C 141.901,440.768 140.568,440.434 139.5,439.5 Z"/></g>
<g><path style="opacity:0.523" fill="#4e3b14" d="M 241.5,439.5 C 243.167,439.5 244.833,439.5 246.5,439.5C 246.263,440.791 246.596,441.791 247.5,442.5C 247.509,444.308 247.009,445.975 246,447.5C 245.503,445.19 245.337,442.857 245.5,440.5C 243.901,440.768 242.568,440.434 241.5,439.5 Z"/></g>
<g><path style="opacity:0.627" fill="#584215" d="M 435.5,439.5 C 437.886,439.259 439.886,439.925 441.5,441.5C 440.048,449.298 439.381,448.964 439.5,440.5C 437.901,440.768 436.568,440.434 435.5,439.5 Z"/></g>
</svg>
