<?xml version="1.0" encoding="UTF-8" standalone="no"?>
<!DOCTYPE svg PUBLIC "-//W3C//DTD SVG 1.1//EN" "http://www.w3.org/Graphics/SVG/1.1/DTD/svg11.dtd">
<svg xmlns="http://www.w3.org/2000/svg" version="1.1" viewBox="0.00 0.00 499.00 499.00">
<g stroke-width="2.00" fill="none" stroke-linecap="butt">
<path stroke="#fade9e" vector-effect="non-scaling-stroke" d="
  M 374.00 148.83
  Q 336.80 149.17 318.74 148.78
  Q 313.23 148.66 309.57 150.72
  C 306.11 152.67 305.11 156.24 305.11 159.92
  Q 305.11 187.93 305.06 212.05
  Q 305.05 220.11 312.09 222.74
  C 314.53 223.65 317.88 223.12 320.56 223.36
  A 0.67 0.67 0.0 0 1 321.16 224.03
  L 321.21 241.56
  A 0.56 0.56 0.0 0 0 322.09 242.02
  Q 334.69 233.12 346.18 224.46
  Q 347.81 223.23 349.75 223.23
  Q 384.27 223.21 418.66 223.29"
/>
<path stroke="#99dff4" vector-effect="non-scaling-stroke" d="
  M 422.91 244.23
  Q 418.04 244.69 416.28 242.46
  C 413.35 238.78 410.10 234.43 405.04 234.15
  C 402.24 234.00 398.98 236.22 398.00 238.75
  C 396.80 241.83 397.84 247.30 394.91 249.47
  C 393.08 250.83 390.51 251.61 389.08 253.40
  C 384.56 259.04 389.89 266.29 393.94 272.78
  Q 394.72 274.02 394.69 276.24
  C 394.64 279.80 390.85 282.06 389.91 285.48
  C 388.33 291.30 393.38 296.09 396.50 300.46
  C 399.78 305.05 397.86 308.85 397.38 313.59
  C 396.56 321.71 403.94 322.99 408.07 328.06
  Q 410.36 330.87 409.12 333.53
  Q 407.06 337.96 407.96 341.26"
/>
<path stroke="#c8beff" vector-effect="non-scaling-stroke" d="
  M 394.97 371.83
  L 366.34 371.80
  A 0.67 0.67 0.0 0 0 365.67 372.47
  Q 365.60 390.85 365.81 409.20
  Q 365.83 411.15 368.14 413.82"
/>
<path stroke="#e8e1fe" vector-effect="non-scaling-stroke" d="
  M 368.14 413.82
  Q 368.06 414.00 367.50 413.99
  Q 358.12 413.88 348.75 414.15
  Q 348.17 414.17 348.45 413.46"
/>
<path stroke="#99dff4" vector-effect="non-scaling-stroke" d="
  M 348.45 413.46
  C 361.19 407.98 353.78 389.87 349.37 381.67
  Q 336.43 357.57 323.39 334.67
  Q 315.47 320.75 304.43 310.07
  Q 300.48 306.24 297.20 304.84
  Q 289.80 301.66 270.31 294.70"
/>
<path stroke="#8fcee8" vector-effect="non-scaling-stroke" d="
  M 270.31 294.70
  L 263.16 293.36"
/>
<path stroke="#f7cbbe" vector-effect="non-scaling-stroke" d="
  M 263.16 293.36
  L 262.41 282.04"
/>
<path stroke="#ecb7ae" vector-effect="non-scaling-stroke" d="
  M 262.41 282.04
  L 263.45 274.04"
/>
<path stroke="#8092a7" vector-effect="non-scaling-stroke" d="
  M 263.45 274.04
  Q 267.26 272.19 270.29 268.88"
/>
<path stroke="#c8beff" vector-effect="non-scaling-stroke" d="
  M 270.29 268.88
  Q 281.85 266.41 283.34 254.50
  Q 283.49 253.32 283.51 249.32"
/>
<path stroke="#8092a7" vector-effect="non-scaling-stroke" d="
  M 283.51 249.32
  Q 288.73 239.74 293.52 231.01
  C 298.12 222.65 298.19 214.76 289.27 209.55
  Q 285.27 207.22 281.64 202.66
  C 278.96 199.29 278.60 194.65 275.70 191.15
  C 268.52 182.50 256.38 182.96 246.86 187.72"
/>
<path stroke="#c8beff" vector-effect="non-scaling-stroke" d="
  M 246.86 187.72
  Q 241.37 187.24 239.00 187.42
  Q 234.16 187.78 226.96 189.80"
/>
<path stroke="#8092a7" vector-effect="non-scaling-stroke" d="
  M 226.96 189.80
  Q 225.40 188.42 224.03 187.25
  C 217.79 181.92 209.99 180.85 203.02 184.83
  C 194.65 189.62 193.12 199.93 196.58 208.26
  Q 198.55 213.01 199.75 218.29
  C 200.44 221.31 200.15 224.21 199.92 227.25
  Q 199.16 237.25 204.07 245.44"
/>
<path stroke="#c8beff" vector-effect="non-scaling-stroke" d="
  M 204.07 245.44
  Q 200.08 257.31 208.55 265.94
  Q 210.28 267.70 213.53 268.56"
/>
<path stroke="#f7cbbe" vector-effect="non-scaling-stroke" d="
  M 213.53 268.56
  Q 214.71 268.85 214.98 269.50
  Q 220.03 281.26 230.96 287.31"
/>
<path stroke="#ecb7ae" vector-effect="non-scaling-stroke" d="
  M 230.96 287.31
  Q 230.97 290.26 229.84 293.27"
/>
<path stroke="#f7cbbe" vector-effect="non-scaling-stroke" d="
  M 229.84 293.27
  Q 229.93 293.44 229.56 293.96"
/>
<path stroke="#8fcee8" vector-effect="non-scaling-stroke" d="
  M 229.56 293.96
  L 227.01 294.74"
/>
<path stroke="#99dff4" vector-effect="non-scaling-stroke" d="
  M 227.01 294.74
  Q 221.86 296.04 216.14 298.89
  Q 207.53 303.16 201.74 307.01"
/>
<path stroke="#8fcee8" vector-effect="non-scaling-stroke" d="
  M 201.74 307.01
  Q 193.42 311.91 187.94 319.47
  C 177.81 333.46 169.89 349.22 162.04 364.59"
/>
<path stroke="#d7e3e7" vector-effect="non-scaling-stroke" d="
  M 162.04 364.59
  Q 161.31 364.65 161.14 363.74
  Q 157.58 345.56 154.13 327.74
  Q 153.40 324.01 150.25 323.93
  Q 134.41 323.57 85.75 324.03
  Q 82.95 324.06 82.39 323.33"
/>
<path stroke="#e8e1fe" vector-effect="non-scaling-stroke" d="
  M 102.58 174.66
  Q 104.38 178.43 107.08 181.39
  Q 107.95 182.35 107.96 183.01
  Q 107.98 185.97 108.02 189.03
  A 0.86 0.86 0.0 0 0 109.40 189.71
  L 116.47 184.34
  Q 116.83 184.08 117.27 184.06
  Q 123.20 183.88 129.39 184.05
  C 148.44 184.59 147.88 158.44 130.00 159.05
  Q 126.59 159.16 113.37 159.01"
/>
<path stroke="#8fcee8" vector-effect="non-scaling-stroke" d="
  M 184.28 394.33
  Q 184.36 393.75 183.76 393.85
  A 0.34 0.29 -68.0 0 0 183.55 393.96
  L 174.64 403.10"
/>
<path stroke="#71bcd0" vector-effect="non-scaling-stroke" d="
  M 174.64 403.10
  L 170.29 403.22
  A 1.68 1.67 83.5 0 1 168.60 401.87
  Q 165.08 384.27 161.76 367.26
  Q 161.56 366.24 162.04 364.59"
/>
<path stroke="#535ba6" vector-effect="non-scaling-stroke" d="
  M 270.29 268.88
  L 266.32 268.24
  Q 265.81 268.15 265.39 268.46
  Q 263.00 270.18 262.83 272.90"
/>
<path stroke="#ca94bd" vector-effect="non-scaling-stroke" d="
  M 262.83 272.90
  Q 261.83 272.19 260.75 272.86
  Q 251.05 279.00 240.82 278.93
  Q 239.76 278.92 239.06 279.80
  C 236.22 283.41 230.56 282.34 227.53 279.63
  C 224.48 276.89 226.92 273.47 230.17 272.78
  Q 236.67 271.40 239.94 275.79
  A 1.55 1.54 -18.6 0 0 241.20 276.41
  C 248.44 276.27 258.03 273.55 262.66 267.62
  A 1.36 1.34 45.0 0 0 262.65 265.95
  L 259.72 262.20"
/>
<path stroke="#8ccbf3" vector-effect="non-scaling-stroke" d="
  M 348.45 413.46
  Q 346.04 414.00 345.00 414.00
  Q 323.60 414.10 257.71 413.94"
/>
<path stroke="#9bb5b3" vector-effect="non-scaling-stroke" d="
  M 257.71 413.94
  Q 258.85 412.73 258.67 411.50
  Q 257.55 403.79 250.01 404.20"
/>
<path stroke="#33b8dd" vector-effect="non-scaling-stroke" d="
  M 250.01 404.20
  Q 250.65 401.99 253.00 401.43
  Q 259.26 399.95 274.36 397.61
  Q 281.83 396.45 293.53 393.85"
/>
<path stroke="#99dff4" vector-effect="non-scaling-stroke" d="
  M 293.53 393.85
  L 315.03 390.01
  A 0.51 0.50 -22.6 0 0 315.36 389.22
  L 298.79 365.54"
/>
<path stroke="#33b8dd" vector-effect="non-scaling-stroke" d="
  M 298.79 365.54
  L 293.74 357.01
  A 0.41 0.41 0.0 0 0 293.01 357.08
  Q 291.46 361.51 289.68 366.33
  C 286.87 373.92 282.77 379.23 275.44 383.14
  Q 267.53 387.37 257.83 390.28
  Q 245.93 393.85 234.01 397.11
  Q 231.33 397.84 228.72 399.04
  Q 226.29 400.16 223.66 401.19"
/>
<path stroke="#9bb5b3" vector-effect="non-scaling-stroke" d="
  M 223.66 401.19
  L 217.56 403.14"
/>
<path stroke="#7bcddc" vector-effect="non-scaling-stroke" d="
  M 217.56 403.14
  L 194.41 403.24"
/>
<path stroke="#99dff4" vector-effect="non-scaling-stroke" d="
  M 194.41 403.24
  Q 194.96 397.72 193.70 393.15"
/>
<path stroke="#33b8dd" vector-effect="non-scaling-stroke" d="
  M 193.50 382.27
  Q 193.39 381.42 193.48 379.92
  Q 193.54 378.75 193.47 377.58
  C 192.30 358.76 192.75 339.55 197.04 320.97
  Q 198.06 316.56 199.47 312.68
  Q 199.84 311.66 200.99 310.09
  Q 202.33 308.24 201.74 307.01"
/>
<path stroke="#826865" vector-effect="non-scaling-stroke" d="
  M 262.83 272.90
  Q 262.76 273.09 262.69 273.28"
/>
<path stroke="#ee8d6d" vector-effect="non-scaling-stroke" d="
  M 262.69 273.28
  Q 262.36 273.97 261.53 274.23
  Q 261.06 274.37 260.82 274.79
  C 254.68 285.30 243.04 291.40 230.96 287.31"
/>
<path stroke="#ca94bd" vector-effect="non-scaling-stroke" d="
  M 213.53 268.56
  Q 214.41 268.75 213.77 267.09
  Q 210.76 259.28 209.66 251.32"
/>
<path stroke="#91a4a7" vector-effect="non-scaling-stroke" d="
  M 263.16 293.36
  Q 264.17 297.33 264.22 299.00
  C 264.66 314.51 239.70 315.66 231.62 307.40
  Q 226.70 302.36 229.56 293.96"
/>
<path stroke="#33b8dd" vector-effect="non-scaling-stroke" d="
  M 270.31 294.70
  Q 270.08 296.87 269.96 298.92
  C 269.51 306.82 264.08 313.94 256.66 316.37
  Q 246.23 319.77 236.12 316.92
  C 228.80 314.85 223.31 307.43 225.65 299.74
  Q 226.69 296.34 227.01 294.74"
/>
<path stroke="#765356" vector-effect="non-scaling-stroke" d="
  M 263.45 274.04
  Q 263.04 274.29 262.69 273.28"
/>
<path stroke="#d7e3e7" vector-effect="non-scaling-stroke" d="
  M 174.64 403.10
  L 194.41 403.24"
/>
<path stroke="#d9b9a6" vector-effect="non-scaling-stroke" d="
  M 217.56 403.14
  Q 214.98 406.17 211.17 408.15
  Q 209.23 409.16 206.28 413.94"
/>
<path stroke="#cacfe6" vector-effect="non-scaling-stroke" d="
  M 206.28 413.94
  L 163.79 413.80"
/>
<path stroke="#ee8d6d" vector-effect="non-scaling-stroke" d="
  M 262.41 282.04
  C 259.63 284.23 257.37 287.21 254.95 289.04
  C 247.64 294.56 239.26 296.51 230.26 293.99
  Q 229.91 293.89 229.84 293.27"
/>
<path stroke="#535ba6" vector-effect="non-scaling-stroke" d="
  M 226.96 189.80
  Q 229.70 191.16 233.64 191.29
  Q 235.93 191.36 238.01 190.75
  C 243.77 189.08 251.02 191.51 257.03 194.48
  C 264.94 198.38 268.86 205.33 270.65 213.65
  Q 273.21 225.64 271.58 238.86
  Q 271.51 239.41 270.96 239.50
  C 260.75 241.15 256.54 253.30 259.72 262.20"
/>
<path stroke="#826865" vector-effect="non-scaling-stroke" d="
  M 259.72 262.20
  Q 258.07 262.52 256.77 262.12
  Q 256.27 261.96 256.23 261.44
  L 255.74 253.87"
/>
<path stroke="#765356" vector-effect="non-scaling-stroke" d="
  M 255.74 253.87
  Q 255.76 249.19 254.19 242.26
  C 252.75 235.95 249.44 232.67 243.58 230.56
  C 234.47 227.29 225.84 222.11 219.07 215.59
  A 0.37 0.36 -49.9 0 0 218.52 215.64
  L 214.04 221.70"
/>
<path stroke="#826865" vector-effect="non-scaling-stroke" d="
  M 214.04 221.70
  C 209.24 230.62 208.39 241.14 209.66 251.32"
/>
<path stroke="#535ba6" vector-effect="non-scaling-stroke" d="
  M 209.66 251.32
  L 204.07 245.44"
/>
<path stroke="#535ba6" vector-effect="non-scaling-stroke" d="
  M 283.51 249.32
  Q 280.99 242.49 275.02 240.06
  Q 274.49 239.84 274.56 239.27
  C 275.87 228.88 275.44 217.47 272.14 207.68
  Q 268.83 197.88 260.38 192.68
  Q 258.94 191.80 255.26 190.48
  Q 252.79 189.60 250.12 188.28"
/>
<path stroke="#8092a7" vector-effect="non-scaling-stroke" d="
  M 250.12 188.28
  C 260.62 185.98 271.20 186.23 276.98 196.72
  Q 277.04 196.83 277.16 196.77
  L 277.40 196.65
  Q 277.68 196.51 277.55 196.22
  Q 274.02 188.28 266.00 186.17
  Q 258.12 184.10 249.62 187.60"
/>
<path stroke="#535ba6" vector-effect="non-scaling-stroke" d="
  M 249.62 187.60
  Q 247.16 188.50 246.86 187.72"
/>
<path stroke="#33b8dd" vector-effect="non-scaling-stroke" d="
  M 441.38 299.25
  Q 438.65 300.92 436.89 303.08
  Q 436.56 303.49 436.87 303.91
  Q 442.89 311.91 446.44 322.93
  Q 446.96 324.52 447.63 322.99
  Q 450.31 316.85 453.13 310.89
  Q 454.29 308.43 454.01 305.59
  Q 453.73 302.63 453.88 299.74
  Q 454.24 293.13 452.45 286.55
  Q 452.17 285.52 452.91 286.28
  Q 453.47 286.85 453.65 287.60
  Q 455.67 296.15 454.95 303.25
  Q 454.47 307.98 456.65 303.76
  Q 462.12 293.17 469.51 282.45
  A 0.32 0.32 0.0 0 1 469.95 282.37
  L 470.15 282.51
  Q 470.49 282.75 470.25 283.09
  Q 465.09 290.28 461.37 297.09
  Q 458.78 301.81 456.07 306.36
  Q 454.87 308.38 457.19 308.03
  Q 457.85 307.94 458.47 307.64
  Q 466.41 303.88 474.67 302.25
  Q 474.86 302.21 474.90 302.40
  L 474.90 302.40
  Q 474.94 302.56 474.79 302.61
  Q 464.87 305.76 455.21 309.62
  Q 454.67 309.83 454.43 310.36
  L 448.12 324.39
  A 0.68 0.68 0.0 0 0 448.98 325.30
  Q 457.93 322.00 467.94 321.44
  Q 468.28 321.42 468.31 321.76
  L 468.33 322.01
  Q 468.34 322.13 468.22 322.14
  Q 457.82 323.28 447.71 326.71
  Q 447.17 326.89 446.97 327.42
  L 440.55 344.18
  A 0.32 0.28 52.3 0 0 440.54 344.35
  Q 440.79 345.22 441.66 344.86
  Q 445.39 343.33 449.00 341.80
  Q 453.03 340.08 461.28 339.12
  Q 461.55 339.09 461.71 339.32
  Q 462.05 339.81 461.47 339.94
  Q 459.55 340.39 457.58 340.73
  Q 449.70 342.12 440.85 346.71
  C 439.98 347.16 439.59 348.01 439.35 348.92
  Q 438.06 353.89 436.46 358.45
  Q 436.38 358.67 436.17 358.56
  L 435.87 358.40
  A 0.28 0.28 0.0 0 1 435.73 358.07
  Q 436.79 354.25 437.82 350.47
  Q 438.96 346.30 438.54 344.76
  Q 436.35 336.72 431.86 330.05
  Q 431.11 328.93 430.60 327.30
  Q 430.55 327.14 430.61 326.99
  Q 430.69 326.76 430.85 326.80
  Q 431.13 326.85 431.29 327.08
  Q 436.48 334.48 438.91 341.79
  Q 439.61 343.88 440.34 341.81
  Q 442.79 334.92 445.93 326.86
  Q 446.27 325.99 446.01 325.11
  Q 442.91 314.55 436.98 305.97
  Q 435.73 304.15 435.42 306.34
  C 434.99 309.43 435.45 312.95 435.88 316.04
  Q 435.97 316.65 435.63 317.16
  L 430.75 324.50
  Q 428.76 327.48 428.24 323.93
  Q 426.83 314.39 424.53 303.11
  C 424.10 301.02 425.77 299.92 426.59 298.27
  Q 432.83 285.79 442.39 276.99
  Q 442.60 276.79 442.41 276.57
  L 442.25 276.37
  Q 442.21 276.32 442.16 276.36
  Q 439.73 278.27 437.63 280.68
  Q 430.00 289.41 424.86 299.22
  Q 424.10 300.67 423.75 299.07
  Q 421.54 288.97 419.23 279.76
  Q 418.70 277.67 419.22 275.51
  Q 419.70 273.50 419.94 271.41
  Q 421.40 258.77 426.46 247.09
  Q 426.53 246.94 426.37 246.87
  L 426.14 246.77
  A 0.39 0.38 -65.5 0 0 425.64 246.96
  Q 420.07 259.39 418.58 273.46
  A 0.61 0.60 11.6 0 1 417.80 273.97
  Q 417.46 273.87 417.37 273.53
  Q 413.02 257.08 404.57 238.21
  Q 404.32 237.65 403.79 237.49
  Q 403.10 237.30 403.41 237.94
  C 409.45 250.59 413.05 262.64 417.06 275.45
  Q 417.28 276.13 416.56 276.24
  Q 416.03 276.32 415.57 275.99
  Q 404.16 267.86 392.20 262.64
  Q 391.72 262.43 391.49 262.90
  L 391.36 263.17
  Q 391.24 263.42 391.49 263.55
  Q 402.39 268.81 409.21 273.02
  Q 413.01 275.36 417.10 278.08
  A 2.16 2.16 0.0 0 1 417.98 279.31
  Q 420.66 289.80 422.91 300.05
  Q 423.00 300.47 422.92 300.89
  A 0.44 0.44 0.0 0 1 422.26 301.18
  Q 409.27 293.04 393.87 289.88
  Q 392.96 289.70 393.68 290.29
  Q 394.64 291.10 395.87 291.40
  Q 410.35 295.01 422.80 302.58
  Q 423.21 302.83 423.37 303.28
  Q 423.87 304.67 424.16 306.25
  Q 426.09 316.62 427.52 327.50
  Q 427.60 328.15 427.49 328.78
  A 0.60 0.60 0.0 0 1 426.52 329.14
  Q 414.57 319.62 400.82 315.54
  Q 400.42 315.42 400.30 315.82
  L 400.21 316.10
  Q 400.15 316.27 400.32 316.32
  Q 413.78 320.53 425.10 329.43
  Q 426.98 330.90 427.57 332.98
  Q 428.88 337.55 428.81 341.83
  A 2.26 2.25 -22.9 0 1 428.20 343.32
  C 425.90 345.78 423.99 347.58 424.40 351.38
  Q 424.93 356.30 426.29 361.29"
/>
<path stroke="#9ec893" vector-effect="non-scaling-stroke" d="
  M 426.29 361.29
  Q 425.01 361.20 425.35 361.43"
/>
<path stroke="#bbaafe" vector-effect="non-scaling-stroke" d="
  M 393.34 413.89
  L 368.14 413.82"
/>
<path stroke="#c8beff" vector-effect="non-scaling-stroke" d="
  M 250.12 188.28
  Q 251.39 188.52 249.62 187.60"
/>
<path stroke="#eab7bd" vector-effect="non-scaling-stroke" d="
  M 257.71 413.94
  L 206.28 413.94"
/>
<path stroke="#8fcee8" vector-effect="non-scaling-stroke" d="
  M 298.79 365.54
  Q 295.31 379.93 293.53 393.85"
/>
<path stroke="#91a4a7" vector-effect="non-scaling-stroke" d="
  M 250.01 404.20
  Q 247.76 405.20 245.87 404.63
  Q 234.48 401.19 223.66 401.19"
/>
<path stroke="#ee8d6d" vector-effect="non-scaling-stroke" d="
  M 255.74 253.87
  Q 254.64 251.47 253.84 248.94
  Q 252.76 245.57 252.06 244.00
  C 250.98 241.56 250.03 238.74 248.06 237.03
  Q 244.85 234.25 241.51 233.39
  Q 226.34 229.52 214.04 221.70"
/>
<path stroke="#edca9d" vector-effect="non-scaling-stroke" d="
  M 446.61 414.18
  L 420.51 413.87"
/>
<path stroke="#94b787" vector-effect="non-scaling-stroke" d="
  M 446.33 361.75
  Q 437.27 362.15 427.88 361.87
  Q 426.63 361.84 426.29 361.29"
/>
<path stroke="#e8e1fe" vector-effect="non-scaling-stroke" d="
  M 233.86 138.08
  A 0.90 0.90 0.0 0 0 233.23 136.54
  L 201.54 136.50
  A 0.90 0.90 0.0 0 0 200.92 138.05
  L 216.96 153.32
  A 0.90 0.90 0.0 0 0 218.21 153.32
  L 233.86 138.08"
/>
<path stroke="#e8e1fe" vector-effect="non-scaling-stroke" d="
  M 200.48 138.96
  A 0.91 0.91 0.0 0 0 198.93 139.61
  L 198.94 158.54
  A 0.91 0.91 0.0 0 0 200.41 159.26
  L 211.13 150.86
  A 0.91 0.91 0.0 0 0 211.21 149.49
  L 200.48 138.96"
/>
<path stroke="#e8e1fe" vector-effect="non-scaling-stroke" d="
  M 234.96 159.41
  A 0.81 0.81 0.0 0 0 236.27 158.76
  L 236.10 139.62
  A 0.81 0.81 0.0 0 0 234.73 139.04
  L 223.65 149.56
  A 0.81 0.81 0.0 0 0 223.71 150.79
  L 234.96 159.41"
/>
<path stroke="#e8e1fe" vector-effect="non-scaling-stroke" d="
  M 223.21 151.83
  Q 222.43 151.23 221.73 151.91
  C 220.35 153.25 218.90 154.76 216.76 154.18
  C 215.23 153.77 214.38 152.32 213.03 151.52
  Q 212.58 151.25 212.16 151.58
  L 202.06 159.49
  Q 199.71 161.33 202.70 161.34
  L 232.31 161.37
  Q 235.53 161.38 232.98 159.41
  L 223.21 151.83"
/>
<path stroke="#e8e1fe" vector-effect="non-scaling-stroke" d="
  M 145.12 258.72
  Q 147.46 261.54 149.56 264.61
  Q 150.19 265.53 151.08 266.22
  A 1.21 1.21 0.0 0 0 152.81 265.97
  L 157.66 259.14
  A 2.68 2.64 16.9 0 1 159.77 258.03
  L 170.89 257.79
  A 2.18 2.18 0.0 0 0 173.03 255.61
  L 173.00 231.25
  Q 173.00 228.00 169.75 228.00
  L 133.21 228.01
  A 3.13 3.12 -0.9 0 0 130.08 231.23
  Q 130.43 243.04 130.01 253.72
  Q 129.85 257.97 134.31 257.96
  Q 138.99 257.96 143.74 258.05
  A 1.86 1.85 70.7 0 1 145.12 258.72"
/>
<path stroke="#e8e1fe" vector-effect="non-scaling-stroke" d="
  M 322.04 272.89
  A 1.13 1.12 -47.1 0 1 320.44 272.95
  Q 318.80 271.42 316.91 270.35
  C 312.03 267.58 306.30 270.55 305.49 275.96
  C 304.25 284.13 314.41 292.05 320.88 295.83
  A 1.10 1.09 -46.2 0 0 322.03 295.80
  C 328.03 291.78 341.41 281.75 335.79 272.98
  C 332.35 267.61 325.83 268.71 322.04 272.89"
/>
<path stroke="#ffe39c" vector-effect="non-scaling-stroke" d="
  M 408.72 170.31
  A 2.19 2.19 0.0 0 0 406.53 168.12
  L 350.47 168.12
  A 2.19 2.19 0.0 0 0 348.28 170.31
  L 348.28 172.57
  A 2.19 2.19 0.0 0 0 350.47 174.76
  L 406.53 174.76
  A 2.19 2.19 0.0 0 0 408.72 172.57
  L 408.72 170.31"
/>
<path stroke="#ffe39c" vector-effect="non-scaling-stroke" d="
  M 343.6557 170.2353
  A 2.09 2.09 0.0 0 0 341.5584 168.1527
  L 325.8785 168.2074
  A 2.09 2.09 0.0 0 0 323.7958 170.3047
  L 323.8043 172.7247
  A 2.09 2.09 0.0 0 0 325.9016 174.8073
  L 341.5815 174.7526
  A 2.09 2.09 0.0 0 0 343.6642 172.6553
  L 343.6557 170.2353"
/>
<path stroke="#ffe39c" vector-effect="non-scaling-stroke" d="
  M 384.32 185.09
  A 2.12 2.12 0.0 0 0 382.20 182.97
  L 325.88 182.97
  A 2.12 2.12 0.0 0 0 323.76 185.09
  L 323.76 187.39
  A 2.12 2.12 0.0 0 0 325.88 189.51
  L 382.20 189.51
  A 2.12 2.12 0.0 0 0 384.32 187.39
  L 384.32 185.09"
/>
<path stroke="#ffe39c" vector-effect="non-scaling-stroke" d="
  M 408.71 184.79
  A 1.81 1.81 0.0 0 0 406.90 182.98
  L 390.82 182.98
  A 1.81 1.81 0.0 0 0 389.01 184.79
  L 389.01 187.65
  A 1.81 1.81 0.0 0 0 390.82 189.46
  L 406.90 189.46
  A 1.81 1.81 0.0 0 0 408.71 187.65
  L 408.71 184.79"
/>
<path stroke="#ffe39c" vector-effect="non-scaling-stroke" d="
  M 366.2217 198.6371
  A 2.29 2.29 0.0 0 0 363.9357 196.3431
  L 325.9758 196.2769
  A 2.29 2.29 0.0 0 0 323.6818 198.5629
  L 323.6783 200.5829
  A 2.29 2.29 0.0 0 0 325.9643 202.8769
  L 363.9242 202.9431
  A 2.29 2.29 0.0 0 0 366.2182 200.6571
  L 366.2217 198.6371"
/>
<path stroke="#ede6fc" vector-effect="non-scaling-stroke" d="
  M 134.13 171.50
  A 2.02 2.02 0.0 0 0 132.11 169.48
  A 2.02 2.02 0.0 0 0 130.09 171.50
  A 2.02 2.02 0.0 0 0 132.11 173.52
  A 2.02 2.02 0.0 0 0 134.13 171.50"
/>
<path stroke="#ede6fc" vector-effect="non-scaling-stroke" d="
  M 116.00 171.49
  A 1.96 1.96 0.0 0 0 114.04 169.53
  A 1.96 1.96 0.0 0 0 112.08 171.49
  A 1.96 1.96 0.0 0 0 114.04 173.45
  A 1.96 1.96 0.0 0 0 116.00 171.49"
/>
<path stroke="#ede6fc" vector-effect="non-scaling-stroke" d="
  M 125.02 171.52
  A 1.90 1.90 0.0 0 0 123.12 169.62
  A 1.90 1.90 0.0 0 0 121.22 171.52
  A 1.90 1.90 0.0 0 0 123.12 173.42
  A 1.90 1.90 0.0 0 0 125.02 171.52"
/>
<path stroke="#8092a7" vector-effect="non-scaling-stroke" d="
  M 222.28 187.36
  C 209.41 176.85 192.55 188.87 196.30 204.49
  Q 196.53 205.45 196.63 204.47
  Q 196.96 201.20 197.60 198.00
  C 199.47 188.69 208.10 181.72 217.73 185.82
  Q 219.95 186.77 222.08 187.68
  Q 223.31 188.21 222.28 187.36"
/>
<path stroke="#535ba6" vector-effect="non-scaling-stroke" d="
  M 234.14 199.74
  C 237.87 199.30 241.76 198.96 245.55 198.60
  C 251.73 198.01 259.58 199.51 262.10 206.12
  C 263.06 208.65 261.83 211.07 261.80 213.66
  Q 261.77 216.18 262.83 217.94
  Q 265.51 222.40 267.66 227.79
  A 0.04 0.04 0.0 0 0 267.73 227.77
  Q 267.17 224.27 264.47 219.52
  C 262.65 216.33 262.47 213.98 263.36 210.45
  C 265.00 203.92 258.51 198.50 252.67 197.80
  C 248.41 197.29 243.24 197.34 239.04 198.14
  Q 235.02 198.91 230.77 199.48
  Q 229.76 199.61 228.68 199.66
  Q 228.08 199.69 228.68 199.75
  Q 231.50 200.05 234.14 199.74"
/>
<path stroke="#8092a7" vector-effect="non-scaling-stroke" d="
  M 292.76 229.68
  Q 292.96 229.76 293.06 229.58
  C 296.13 223.76 297.13 217.02 291.43 212.36
  Q 289.59 210.85 290.83 212.88
  Q 295.55 220.52 292.48 229.51
  Q 292.46 229.56 292.52 229.59
  L 292.76 229.68"
/>
<path stroke="#ede6fc" vector-effect="non-scaling-stroke" d="
  M 138.40 242.35
  C 138.31 244.57 140.43 246.18 140.51 248.63
  A 0.56 0.56 0.0 0 0 141.45 249.02
  C 142.32 248.20 143.19 247.26 144.48 247.23
  Q 147.51 247.17 150.43 246.91
  Q 152.56 246.73 153.35 244.67
  C 155.07 240.17 152.19 237.50 147.92 237.66
  C 144.07 237.81 138.64 236.67 138.40 242.35"
/>
<path stroke="#ede6fc" vector-effect="non-scaling-stroke" d="
  M 160.40 241.13
  A 1.22 1.21 15.5 0 1 160.94 242.08
  L 161.18 246.67
  A 0.64 0.64 0.0 0 0 162.32 247.04
  C 163.48 245.61 163.01 240.57 162.91 238.73
  A 0.81 0.80 82.6 0 0 161.95 237.98
  Q 160.18 238.33 159.11 239.80
  Q 158.58 240.53 159.46 240.73
  Q 159.98 240.85 160.40 241.13"
/>
</g>
<path fill="#f5f5ff" d="
  M 429.28 58.31
  C 431.23 61.07 434.70 59.95 437.39 60.04
  C 440.85 60.16 446.19 63.66 448.69 65.56
  A 1.15 1.15 0.0 0 1 448.29 67.58
  Q 447.25 67.85 446.23 67.85
  C 441.49 67.82 436.65 67.32 431.91 67.47
  C 421.34 67.79 410.98 67.38 400.38 67.51
  Q 380.02 67.74 360.78 67.52
  C 353.97 67.44 346.67 68.51 340.14 68.16
  A 1.39 1.38 -19.8 0 1 339.20 67.72
  Q 338.55 67.03 338.89 66.54
  Q 339.83 65.21 341.49 65.02
  Q 348.05 64.29 353.06 60.91
  C 355.73 59.10 359.93 60.07 363.06 60.35
  C 367.14 60.72 367.63 57.80 369.64 55.32
  C 372.40 51.90 376.06 52.60 379.59 54.03
  C 387.03 57.04 390.10 46.96 394.91 43.96
  C 399.00 41.41 403.06 45.40 404.07 49.09
  C 404.90 52.14 406.89 56.38 410.06 57.50
  C 417.65 60.18 421.66 47.52 429.28 58.31
  Z"
/>
<path fill="#f5f5ff" d="
  M 165.77 81.62
  C 126.48 82.28 85.14 82.18 44.54 81.69
  C 43.66 81.68 42.77 81.34 41.89 81.27
  A 0.69 0.69 0.0 0 1 41.25 80.55
  Q 41.26 80.25 41.47 80.01
  Q 41.90 79.51 42.43 79.35
  Q 48.19 77.57 53.24 74.18
  Q 53.65 73.90 54.15 73.89
  Q 56.97 73.88 59.90 74.69
  C 67.13 76.72 65.46 65.74 72.57 65.92
  C 76.30 66.01 79.90 68.61 83.24 70.07
  C 89.37 72.73 93.50 62.24 95.33 58.27
  C 97.92 52.66 103.70 52.16 107.40 57.49
  C 110.43 61.86 115.37 68.56 121.73 65.87
  Q 124.44 64.73 127.18 64.29
  C 135.65 62.91 133.10 74.85 140.82 73.50
  C 146.99 72.43 149.61 71.23 154.17 76.57
  Q 155.98 78.70 159.14 78.77
  Q 163.74 78.86 167.16 79.64
  A 1.18 1.17 78.8 0 1 167.86 80.11
  Q 168.27 80.71 167.81 80.95
  Q 166.62 81.61 165.77 81.62
  Z"
/>
<path fill="#f5f5ff" d="
  M 374.00 148.83
  Q 336.80 149.17 318.74 148.78
  Q 313.23 148.66 309.57 150.72
  C 306.11 152.67 305.11 156.24 305.11 159.92
  Q 305.11 187.93 305.06 212.05
  Q 305.05 220.11 312.09 222.74
  C 314.53 223.65 317.88 223.12 320.56 223.36
  A 0.67 0.67 0.0 0 1 321.16 224.03
  L 321.21 241.56
  A 0.56 0.56 0.0 0 0 322.09 242.02
  Q 334.69 233.12 346.18 224.46
  Q 347.81 223.23 349.75 223.23
  Q 384.27 223.21 418.66 223.29
  L 422.91 244.23
  Q 418.04 244.69 416.28 242.46
  C 413.35 238.78 410.10 234.43 405.04 234.15
  C 402.24 234.00 398.98 236.22 398.00 238.75
  C 396.80 241.83 397.84 247.30 394.91 249.47
  C 393.08 250.83 390.51 251.61 389.08 253.40
  C 384.56 259.04 389.89 266.29 393.94 272.78
  Q 394.72 274.02 394.69 276.24
  C 394.64 279.80 390.85 282.06 389.91 285.48
  C 388.33 291.30 393.38 296.09 396.50 300.46
  C 399.78 305.05 397.86 308.85 397.38 313.59
  C 396.56 321.71 403.94 322.99 408.07 328.06
  Q 410.36 330.87 409.12 333.53
  Q 407.06 337.96 407.96 341.26
  Q 407.07 343.05 406.70 345.22
  Q 406.25 347.79 405.68 349.17
  Q 402.70 356.28 401.24 358.23
  Q 397.09 363.74 394.84 370.25
  Q 394.55 371.09 394.97 371.83
  L 366.34 371.80
  A 0.67 0.67 0.0 0 0 365.67 372.47
  Q 365.60 390.85 365.81 409.20
  Q 365.83 411.15 368.14 413.82
  Q 368.06 414.00 367.50 413.99
  Q 358.12 413.88 348.75 414.15
  Q 348.17 414.17 348.45 413.46
  C 361.19 407.98 353.78 389.87 349.37 381.67
  Q 336.43 357.57 323.39 334.67
  Q 315.47 320.75 304.43 310.07
  Q 300.48 306.24 297.20 304.84
  Q 289.80 301.66 270.31 294.70
  L 263.16 293.36
  L 262.41 282.04
  L 263.45 274.04
  Q 267.26 272.19 270.29 268.88
  Q 281.85 266.41 283.34 254.50
  Q 283.49 253.32 283.51 249.32
  Q 288.73 239.74 293.52 231.01
  C 298.12 222.65 298.19 214.76 289.27 209.55
  Q 285.27 207.22 281.64 202.66
  C 278.96 199.29 278.60 194.65 275.70 191.15
  C 268.52 182.50 256.38 182.96 246.86 187.72
  Q 241.37 187.24 239.00 187.42
  Q 234.16 187.78 226.96 189.80
  Q 225.40 188.42 224.03 187.25
  C 217.79 181.92 209.99 180.85 203.02 184.83
  C 194.65 189.62 193.12 199.93 196.58 208.26
  Q 198.55 213.01 199.75 218.29
  C 200.44 221.31 200.15 224.21 199.92 227.25
  Q 199.16 237.25 204.07 245.44
  Q 200.08 257.31 208.55 265.94
  Q 210.28 267.70 213.53 268.56
  Q 214.71 268.85 214.98 269.50
  Q 220.03 281.26 230.96 287.31
  Q 230.97 290.26 229.84 293.27
  Q 229.93 293.44 229.56 293.96
  L 227.01 294.74
  Q 221.86 296.04 216.14 298.89
  Q 207.53 303.16 201.74 307.01
  Q 193.42 311.91 187.94 319.47
  C 177.81 333.46 169.89 349.22 162.04 364.59
  Q 161.31 364.65 161.14 363.74
  Q 157.58 345.56 154.13 327.74
  Q 153.40 324.01 150.25 323.93
  Q 134.41 323.57 85.75 324.03
  Q 82.95 324.06 82.39 323.33
  Q 79.48 314.24 77.50 302.74
  C 74.79 287.05 73.51 272.43 74.91 256.58
  Q 77.02 232.64 85.56 209.15
  Q 90.37 195.89 98.37 181.27
  C 99.55 179.11 101.20 176.95 102.58 174.66
  Q 104.38 178.43 107.08 181.39
  Q 107.95 182.35 107.96 183.01
  Q 107.98 185.97 108.02 189.03
  A 0.86 0.86 0.0 0 0 109.40 189.71
  L 116.47 184.34
  Q 116.83 184.08 117.27 184.06
  Q 123.20 183.88 129.39 184.05
  C 148.44 184.59 147.88 158.44 130.00 159.05
  Q 126.59 159.16 113.37 159.01
  Q 115.63 156.76 117.19 154.97
  Q 140.86 127.73 173.45 112.26
  C 223.44 88.52 280.92 89.47 330.09 114.95
  Q 349.17 124.84 363.88 137.37
  Q 368.47 141.27 374.00 148.83
  Z
  M 233.86 138.08
  A 0.90 0.90 0.0 0 0 233.23 136.54
  L 201.54 136.50
  A 0.90 0.90 0.0 0 0 200.92 138.05
  L 216.96 153.32
  A 0.90 0.90 0.0 0 0 218.21 153.32
  L 233.86 138.08
  Z
  M 200.48 138.96
  A 0.91 0.91 0.0 0 0 198.93 139.61
  L 198.94 158.54
  A 0.91 0.91 0.0 0 0 200.41 159.26
  L 211.13 150.86
  A 0.91 0.91 0.0 0 0 211.21 149.49
  L 200.48 138.96
  Z
  M 234.96 159.41
  A 0.81 0.81 0.0 0 0 236.27 158.76
  L 236.10 139.62
  A 0.81 0.81 0.0 0 0 234.73 139.04
  L 223.65 149.56
  A 0.81 0.81 0.0 0 0 223.71 150.79
  L 234.96 159.41
  Z
  M 223.21 151.83
  Q 222.43 151.23 221.73 151.91
  C 220.35 153.25 218.90 154.76 216.76 154.18
  C 215.23 153.77 214.38 152.32 213.03 151.52
  Q 212.58 151.25 212.16 151.58
  L 202.06 159.49
  Q 199.71 161.33 202.70 161.34
  L 232.31 161.37
  Q 235.53 161.38 232.98 159.41
  L 223.21 151.83
  Z
  M 145.12 258.72
  Q 147.46 261.54 149.56 264.61
  Q 150.19 265.53 151.08 266.22
  A 1.21 1.21 0.0 0 0 152.81 265.97
  L 157.66 259.14
  A 2.68 2.64 16.9 0 1 159.77 258.03
  L 170.89 257.79
  A 2.18 2.18 0.0 0 0 173.03 255.61
  L 173.00 231.25
  Q 173.00 228.00 169.75 228.00
  L 133.21 228.01
  A 3.13 3.12 -0.9 0 0 130.08 231.23
  Q 130.43 243.04 130.01 253.72
  Q 129.85 257.97 134.31 257.96
  Q 138.99 257.96 143.74 258.05
  A 1.86 1.85 70.7 0 1 145.12 258.72
  Z
  M 322.04 272.89
  A 1.13 1.12 -47.1 0 1 320.44 272.95
  Q 318.80 271.42 316.91 270.35
  C 312.03 267.58 306.30 270.55 305.49 275.96
  C 304.25 284.13 314.41 292.05 320.88 295.83
  A 1.10 1.09 -46.2 0 0 322.03 295.80
  C 328.03 291.78 341.41 281.75 335.79 272.98
  C 332.35 267.61 325.83 268.71 322.04 272.89
  Z
  M 377.17 347.87
  C 377.17 340.21 381.73 334.68 384.19 327.83
  Q 385.20 325.01 384.97 322.12
  Q 384.93 321.70 384.59 321.45
  A 0.55 0.55 0.0 0 0 383.80 321.60
  C 381.52 325.23 379.69 329.11 377.07 332.52
  C 371.98 339.15 371.04 347.37 375.83 354.28
  Q 377.71 356.99 377.43 353.71
  Q 377.17 350.74 377.17 347.87
  Z"
/>
<path fill="#dacdfd" d="
  M 233.86 138.08
  L 218.21 153.32
  A 0.90 0.90 0.0 0 1 216.96 153.32
  L 200.92 138.05
  A 0.90 0.90 0.0 0 1 201.54 136.50
  L 233.23 136.54
  A 0.90 0.90 0.0 0 1 233.86 138.08
  Z"
/>
<path fill="#dacdfd" d="
  M 200.48 138.96
  L 211.21 149.49
  A 0.91 0.91 0.0 0 1 211.13 150.86
  L 200.41 159.26
  A 0.91 0.91 0.0 0 1 198.94 158.54
  L 198.93 139.61
  A 0.91 0.91 0.0 0 1 200.48 138.96
  Z"
/>
<path fill="#dacdfd" d="
  M 234.96 159.41
  L 223.71 150.79
  A 0.81 0.81 0.0 0 1 223.65 149.56
  L 234.73 139.04
  A 0.81 0.81 0.0 0 1 236.10 139.62
  L 236.27 158.76
  A 0.81 0.81 0.0 0 1 234.96 159.41
  Z"
/>
<path fill="#ffc73d" d="
  M 374.00 148.83
  Q 393.95 149.14 414.45 149.22
  Q 420.33 149.25 422.76 150.71
  Q 427.01 153.27 427.01 159.49
  Q 427.03 183.12 427.00 209.25
  C 427.00 212.19 427.52 215.16 425.93 217.72
  Q 423.32 221.92 418.66 223.29
  Q 384.27 223.21 349.75 223.23
  Q 347.81 223.23 346.18 224.46
  Q 334.69 233.12 322.09 242.02
  A 0.56 0.56 0.0 0 1 321.21 241.56
  L 321.16 224.03
  A 0.67 0.67 0.0 0 0 320.56 223.36
  C 317.88 223.12 314.53 223.65 312.09 222.74
  Q 305.05 220.11 305.06 212.05
  Q 305.11 187.93 305.11 159.92
  C 305.11 156.24 306.11 152.67 309.57 150.72
  Q 313.23 148.66 318.74 148.78
  Q 336.80 149.17 374.00 148.83
  Z
  M 408.72 170.31
  A 2.19 2.19 0.0 0 0 406.53 168.12
  L 350.47 168.12
  A 2.19 2.19 0.0 0 0 348.28 170.31
  L 348.28 172.57
  A 2.19 2.19 0.0 0 0 350.47 174.76
  L 406.53 174.76
  A 2.19 2.19 0.0 0 0 408.72 172.57
  L 408.72 170.31
  Z
  M 343.6557 170.2353
  A 2.09 2.09 0.0 0 0 341.5584 168.1527
  L 325.8785 168.2074
  A 2.09 2.09 0.0 0 0 323.7958 170.3047
  L 323.8043 172.7247
  A 2.09 2.09 0.0 0 0 325.9016 174.8073
  L 341.5815 174.7526
  A 2.09 2.09 0.0 0 0 343.6642 172.6553
  L 343.6557 170.2353
  Z
  M 384.32 185.09
  A 2.12 2.12 0.0 0 0 382.20 182.97
  L 325.88 182.97
  A 2.12 2.12 0.0 0 0 323.76 185.09
  L 323.76 187.39
  A 2.12 2.12 0.0 0 0 325.88 189.51
  L 382.20 189.51
  A 2.12 2.12 0.0 0 0 384.32 187.39
  L 384.32 185.09
  Z
  M 408.71 184.79
  A 1.81 1.81 0.0 0 0 406.90 182.98
  L 390.82 182.98
  A 1.81 1.81 0.0 0 0 389.01 184.79
  L 389.01 187.65
  A 1.81 1.81 0.0 0 0 390.82 189.46
  L 406.90 189.46
  A 1.81 1.81 0.0 0 0 408.71 187.65
  L 408.71 184.79
  Z
  M 366.2217 198.6371
  A 2.29 2.29 0.0 0 0 363.9357 196.3431
  L 325.9758 196.2769
  A 2.29 2.29 0.0 0 0 323.6818 198.5629
  L 323.6783 200.5829
  A 2.29 2.29 0.0 0 0 325.9643 202.8769
  L 363.9242 202.9431
  A 2.29 2.29 0.0 0 0 366.2182 200.6571
  L 366.2217 198.6371
  Z"
/>
<path fill="#dacdfd" d="
  M 223.21 151.83
  L 232.98 159.41
  Q 235.53 161.38 232.31 161.37
  L 202.70 161.34
  Q 199.71 161.33 202.06 159.49
  L 212.16 151.58
  Q 212.58 151.25 213.03 151.52
  C 214.38 152.32 215.23 153.77 216.76 154.18
  C 218.90 154.76 220.35 153.25 221.73 151.91
  Q 222.43 151.23 223.21 151.83
  Z"
/>
<path fill="#dacdfd" d="
  M 113.37 159.01
  Q 126.59 159.16 130.00 159.05
  C 147.88 158.44 148.44 184.59 129.39 184.05
  Q 123.20 183.88 117.27 184.06
  Q 116.83 184.08 116.47 184.34
  L 109.40 189.71
  A 0.86 0.86 0.0 0 1 108.02 189.03
  Q 107.98 185.97 107.96 183.01
  Q 107.95 182.35 107.08 181.39
  Q 104.38 178.43 102.58 174.66
  C 102.87 171.67 102.82 168.58 104.23 165.97
  Q 107.17 160.48 113.37 159.01
  Z
  M 134.13 171.50
  A 2.02 2.02 0.0 0 0 132.11 169.48
  A 2.02 2.02 0.0 0 0 130.09 171.50
  A 2.02 2.02 0.0 0 0 132.11 173.52
  A 2.02 2.02 0.0 0 0 134.13 171.50
  Z
  M 116.00 171.49
  A 1.96 1.96 0.0 0 0 114.04 169.53
  A 1.96 1.96 0.0 0 0 112.08 171.49
  A 1.96 1.96 0.0 0 0 114.04 173.45
  A 1.96 1.96 0.0 0 0 116.00 171.49
  Z
  M 125.02 171.52
  A 1.90 1.90 0.0 0 0 123.12 169.62
  A 1.90 1.90 0.0 0 0 121.22 171.52
  A 1.90 1.90 0.0 0 0 123.12 173.42
  A 1.90 1.90 0.0 0 0 125.02 171.52
  Z"
/>
<rect fill="#fffffb" x="348.28" y="168.12" width="60.44" height="6.64" rx="2.19"/>
<rect fill="#fffffb" x="-9.93" y="-3.30" transform="translate(333.73,171.48) rotate(-0.2)" width="19.86" height="6.60" rx="2.09"/>
<circle fill="#fffffb" cx="132.11" cy="171.50" r="2.02"/>
<circle fill="#fffffb" cx="114.04" cy="171.49" r="1.96"/>
<circle fill="#fffffb" cx="123.12" cy="171.52" r="1.90"/>
<path fill="#0a2e4e" d="
  M 226.96 189.80
  Q 229.70 191.16 233.64 191.29
  Q 235.93 191.36 238.01 190.75
  C 243.77 189.08 251.02 191.51 257.03 194.48
  C 264.94 198.38 268.86 205.33 270.65 213.65
  Q 273.21 225.64 271.58 238.86
  Q 271.51 239.41 270.96 239.50
  C 260.75 241.15 256.54 253.30 259.72 262.20
  Q 258.07 262.52 256.77 262.12
  Q 256.27 261.96 256.23 261.44
  L 255.74 253.87
  Q 255.76 249.19 254.19 242.26
  C 252.75 235.95 249.44 232.67 243.58 230.56
  C 234.47 227.29 225.84 222.11 219.07 215.59
  A 0.37 0.36 -49.9 0 0 218.52 215.64
  L 214.04 221.70
  C 209.24 230.62 208.39 241.14 209.66 251.32
  L 204.07 245.44
  Q 199.16 237.25 199.92 227.25
  C 200.15 224.21 200.44 221.31 199.75 218.29
  Q 198.55 213.01 196.58 208.26
  C 193.12 199.93 194.65 189.62 203.02 184.83
  C 209.99 180.85 217.79 181.92 224.03 187.25
  Q 225.40 188.42 226.96 189.80
  Z
  M 222.28 187.36
  C 209.41 176.85 192.55 188.87 196.30 204.49
  Q 196.53 205.45 196.63 204.47
  Q 196.96 201.20 197.60 198.00
  C 199.47 188.69 208.10 181.72 217.73 185.82
  Q 219.95 186.77 222.08 187.68
  Q 223.31 188.21 222.28 187.36
  Z
  M 234.14 199.74
  C 237.87 199.30 241.76 198.96 245.55 198.60
  C 251.73 198.01 259.58 199.51 262.10 206.12
  C 263.06 208.65 261.83 211.07 261.80 213.66
  Q 261.77 216.18 262.83 217.94
  Q 265.51 222.40 267.66 227.79
  A 0.04 0.04 0.0 0 0 267.73 227.77
  Q 267.17 224.27 264.47 219.52
  C 262.65 216.33 262.47 213.98 263.36 210.45
  C 265.00 203.92 258.51 198.50 252.67 197.80
  C 248.41 197.29 243.24 197.34 239.04 198.14
  Q 235.02 198.91 230.77 199.48
  Q 229.76 199.61 228.68 199.66
  Q 228.08 199.69 228.68 199.75
  Q 231.50 200.05 234.14 199.74
  Z"
/>
<rect fill="#fffffb" x="323.76" y="182.97" width="60.56" height="6.54" rx="2.12"/>
<rect fill="#fffffb" x="389.01" y="182.98" width="19.70" height="6.48" rx="1.81"/>
<path fill="#f5f5ff" d="
  M 196.30 204.49
  C 192.55 188.87 209.41 176.85 222.28 187.36
  Q 223.31 188.21 222.08 187.68
  Q 219.95 186.77 217.73 185.82
  C 208.10 181.72 199.47 188.69 197.60 198.00
  Q 196.96 201.20 196.63 204.47
  Q 196.53 205.45 196.30 204.49
  Z"
/>
<path fill="#0a2e4e" d="
  M 283.51 249.32
  Q 280.99 242.49 275.02 240.06
  Q 274.49 239.84 274.56 239.27
  C 275.87 228.88 275.44 217.47 272.14 207.68
  Q 268.83 197.88 260.38 192.68
  Q 258.94 191.80 255.26 190.48
  Q 252.79 189.60 250.12 188.28
  C 260.62 185.98 271.20 186.23 276.98 196.72
  Q 277.04 196.83 277.16 196.77
  L 277.40 196.65
  Q 277.68 196.51 277.55 196.22
  Q 274.02 188.28 266.00 186.17
  Q 258.12 184.10 249.62 187.60
  Q 247.16 188.50 246.86 187.72
  C 256.38 182.96 268.52 182.50 275.70 191.15
  C 278.60 194.65 278.96 199.29 281.64 202.66
  Q 285.27 207.22 289.27 209.55
  C 298.19 214.76 298.12 222.65 293.52 231.01
  Q 288.73 239.74 283.51 249.32
  Z
  M 292.76 229.68
  Q 292.96 229.76 293.06 229.58
  C 296.13 223.76 297.13 217.02 291.43 212.36
  Q 289.59 210.85 290.83 212.88
  Q 295.55 220.52 292.48 229.51
  Q 292.46 229.56 292.52 229.59
  L 292.76 229.68
  Z"
/>
<path fill="#f5f5ff" d="
  M 250.12 188.28
  Q 251.39 188.52 249.62 187.60
  Q 258.12 184.10 266.00 186.17
  Q 274.02 188.28 277.55 196.22
  Q 277.68 196.51 277.40 196.65
  L 277.16 196.77
  Q 277.04 196.83 276.98 196.72
  C 271.20 186.23 260.62 185.98 250.12 188.28
  Z"
/>
<path fill="#9b87fe" d="
  M 246.86 187.72
  Q 247.16 188.50 249.62 187.60
  Q 251.39 188.52 250.12 188.28
  Q 252.79 189.60 255.26 190.48
  Q 258.94 191.80 260.38 192.68
  Q 268.83 197.88 272.14 207.68
  C 275.44 217.47 275.87 228.88 274.56 239.27
  Q 274.49 239.84 275.02 240.06
  Q 280.99 242.49 283.51 249.32
  Q 283.49 253.32 283.34 254.50
  Q 281.85 266.41 270.29 268.88
  L 266.32 268.24
  Q 265.81 268.15 265.39 268.46
  Q 263.00 270.18 262.83 272.90
  Q 261.83 272.19 260.75 272.86
  Q 251.05 279.00 240.82 278.93
  Q 239.76 278.92 239.06 279.80
  C 236.22 283.41 230.56 282.34 227.53 279.63
  C 224.48 276.89 226.92 273.47 230.17 272.78
  Q 236.67 271.40 239.94 275.79
  A 1.55 1.54 -18.6 0 0 241.20 276.41
  C 248.44 276.27 258.03 273.55 262.66 267.62
  A 1.36 1.34 45.0 0 0 262.65 265.95
  L 259.72 262.20
  C 256.54 253.30 260.75 241.15 270.96 239.50
  Q 271.51 239.41 271.58 238.86
  Q 273.21 225.64 270.65 213.65
  C 268.86 205.33 264.94 198.38 257.03 194.48
  C 251.02 191.51 243.77 189.08 238.01 190.75
  Q 235.93 191.36 233.64 191.29
  Q 229.70 191.16 226.96 189.80
  Q 234.16 187.78 239.00 187.42
  Q 241.37 187.24 246.86 187.72
  Z"
/>
<rect fill="#fffffb" x="-21.27" y="-3.30" transform="translate(344.95,199.61) rotate(0.1)" width="42.54" height="6.60" rx="2.29"/>
<path fill="#9b87fe" d="
  M 234.14 199.74
  Q 231.50 200.05 228.68 199.75
  Q 228.08 199.69 228.68 199.66
  Q 229.76 199.61 230.77 199.48
  Q 235.02 198.91 239.04 198.14
  C 243.24 197.34 248.41 197.29 252.67 197.80
  C 258.51 198.50 265.00 203.92 263.36 210.45
  C 262.47 213.98 262.65 216.33 264.47 219.52
  Q 267.17 224.27 267.73 227.77
  A 0.04 0.04 0.0 0 1 267.66 227.79
  Q 265.51 222.40 262.83 217.94
  Q 261.77 216.18 261.80 213.66
  C 261.83 211.07 263.06 208.65 262.10 206.12
  C 259.58 199.51 251.73 198.01 245.55 198.60
  C 241.76 198.96 237.87 199.30 234.14 199.74
  Z"
/>
<path fill="#f5f5ff" d="
  M 292.48 229.51
  Q 295.55 220.52 290.83 212.88
  Q 289.59 210.85 291.43 212.36
  C 297.13 217.02 296.13 223.76 293.06 229.58
  Q 292.96 229.76 292.76 229.68
  L 292.52 229.59
  Q 292.46 229.56 292.48 229.51
  Z"
/>
<path fill="#e2785d" d="
  M 255.74 253.87
  Q 254.64 251.47 253.84 248.94
  Q 252.76 245.57 252.06 244.00
  C 250.98 241.56 250.03 238.74 248.06 237.03
  Q 244.85 234.25 241.51 233.39
  Q 226.34 229.52 214.04 221.70
  L 218.52 215.64
  A 0.37 0.36 -49.9 0 1 219.07 215.59
  C 225.84 222.11 234.47 227.29 243.58 230.56
  C 249.44 232.67 252.75 235.95 254.19 242.26
  Q 255.76 249.19 255.74 253.87
  Z"
/>
<path fill="#f9a17c" d="
  M 214.04 221.70
  Q 226.34 229.52 241.51 233.39
  Q 244.85 234.25 248.06 237.03
  C 250.03 238.74 250.98 241.56 252.06 244.00
  Q 252.76 245.57 253.84 248.94
  Q 254.64 251.47 255.74 253.87
  L 256.23 261.44
  Q 256.27 261.96 256.77 262.12
  Q 258.07 262.52 259.72 262.20
  L 262.65 265.95
  A 1.36 1.34 45.0 0 1 262.66 267.62
  C 258.03 273.55 248.44 276.27 241.20 276.41
  A 1.55 1.54 -18.6 0 1 239.94 275.79
  Q 236.67 271.40 230.17 272.78
  C 226.92 273.47 224.48 276.89 227.53 279.63
  C 230.56 282.34 236.22 283.41 239.06 279.80
  Q 239.76 278.92 240.82 278.93
  Q 251.05 279.00 260.75 272.86
  Q 261.83 272.19 262.83 272.90
  Q 262.76 273.09 262.69 273.28
  Q 262.36 273.97 261.53 274.23
  Q 261.06 274.37 260.82 274.79
  C 254.68 285.30 243.04 291.40 230.96 287.31
  Q 220.03 281.26 214.98 269.50
  Q 214.71 268.85 213.53 268.56
  Q 214.41 268.75 213.77 267.09
  Q 210.76 259.28 209.66 251.32
  C 208.39 241.14 209.24 230.62 214.04 221.70
  Z"
/>
<path fill="#dacdfd" d="
  M 143.74 258.05
  Q 138.99 257.96 134.31 257.96
  Q 129.85 257.97 130.01 253.72
  Q 130.43 243.04 130.08 231.23
  A 3.13 3.12 -0.9 0 1 133.21 228.01
  L 169.75 228.00
  Q 173.00 228.00 173.00 231.25
  L 173.03 255.61
  A 2.18 2.18 0.0 0 1 170.89 257.79
  L 159.77 258.03
  A 2.68 2.64 16.9 0 0 157.66 259.14
  L 152.81 265.97
  A 1.21 1.21 0.0 0 1 151.08 266.22
  Q 150.19 265.53 149.56 264.61
  Q 147.46 261.54 145.12 258.72
  A 1.86 1.85 70.7 0 0 143.74 258.05
  Z
  M 138.40 242.35
  C 138.31 244.57 140.43 246.18 140.51 248.63
  A 0.56 0.56 0.0 0 0 141.45 249.02
  C 142.32 248.20 143.19 247.26 144.48 247.23
  Q 147.51 247.17 150.43 246.91
  Q 152.56 246.73 153.35 244.67
  C 155.07 240.17 152.19 237.50 147.92 237.66
  C 144.07 237.81 138.64 236.67 138.40 242.35
  Z
  M 160.40 241.13
  A 1.22 1.21 15.5 0 1 160.94 242.08
  L 161.18 246.67
  A 0.64 0.64 0.0 0 0 162.32 247.04
  C 163.48 245.61 163.01 240.57 162.91 238.73
  A 0.81 0.80 82.6 0 0 161.95 237.98
  Q 160.18 238.33 159.11 239.80
  Q 158.58 240.53 159.46 240.73
  Q 159.98 240.85 160.40 241.13
  Z"
/>
<path fill="#3dc8e9" d="
  M 422.91 244.23
  Q 432.53 243.67 433.48 252.27
  C 434.21 258.83 433.59 265.22 439.39 269.68
  C 443.38 272.74 444.46 276.82 443.43 281.81
  Q 442.20 287.75 439.89 293.73
  Q 438.93 296.21 441.38 299.25
  Q 438.65 300.92 436.89 303.08
  Q 436.56 303.49 436.87 303.91
  Q 442.89 311.91 446.44 322.93
  Q 446.96 324.52 447.63 322.99
  Q 450.31 316.85 453.13 310.89
  Q 454.29 308.43 454.01 305.59
  Q 453.73 302.63 453.88 299.74
  Q 454.24 293.13 452.45 286.55
  Q 452.17 285.52 452.91 286.28
  Q 453.47 286.85 453.65 287.60
  Q 455.67 296.15 454.95 303.25
  Q 454.47 307.98 456.65 303.76
  Q 462.12 293.17 469.51 282.45
  A 0.32 0.32 0.0 0 1 469.95 282.37
  L 470.15 282.51
  Q 470.49 282.75 470.25 283.09
  Q 465.09 290.28 461.37 297.09
  Q 458.78 301.81 456.07 306.36
  Q 454.87 308.38 457.19 308.03
  Q 457.85 307.94 458.47 307.64
  Q 466.41 303.88 474.67 302.25
  Q 474.86 302.21 474.90 302.40
  L 474.90 302.40
  Q 474.94 302.56 474.79 302.61
  Q 464.87 305.76 455.21 309.62
  Q 454.67 309.83 454.43 310.36
  L 448.12 324.39
  A 0.68 0.68 0.0 0 0 448.98 325.30
  Q 457.93 322.00 467.94 321.44
  Q 468.28 321.42 468.31 321.76
  L 468.33 322.01
  Q 468.34 322.13 468.22 322.14
  Q 457.82 323.28 447.71 326.71
  Q 447.17 326.89 446.97 327.42
  L 440.55 344.18
  A 0.32 0.28 52.3 0 0 440.54 344.35
  Q 440.79 345.22 441.66 344.86
  Q 445.39 343.33 449.00 341.80
  Q 453.03 340.08 461.28 339.12
  Q 461.55 339.09 461.71 339.32
  Q 462.05 339.81 461.47 339.94
  Q 459.55 340.39 457.58 340.73
  Q 449.70 342.12 440.85 346.71
  C 439.98 347.16 439.59 348.01 439.35 348.92
  Q 438.06 353.89 436.46 358.45
  Q 436.38 358.67 436.17 358.56
  L 435.87 358.40
  A 0.28 0.28 0.0 0 1 435.73 358.07
  Q 436.79 354.25 437.82 350.47
  Q 438.96 346.30 438.54 344.76
  Q 436.35 336.72 431.86 330.05
  Q 431.11 328.93 430.60 327.30
  Q 430.55 327.14 430.61 326.99
  Q 430.69 326.76 430.85 326.80
  Q 431.13 326.85 431.29 327.08
  Q 436.48 334.48 438.91 341.79
  Q 439.61 343.88 440.34 341.81
  Q 442.79 334.92 445.93 326.86
  Q 446.27 325.99 446.01 325.11
  Q 442.91 314.55 436.98 305.97
  Q 435.73 304.15 435.42 306.34
  C 434.99 309.43 435.45 312.95 435.88 316.04
  Q 435.97 316.65 435.63 317.16
  L 430.75 324.50
  Q 428.76 327.48 428.24 323.93
  Q 426.83 314.39 424.53 303.11
  C 424.10 301.02 425.77 299.92 426.59 298.27
  Q 432.83 285.79 442.39 276.99
  Q 442.60 276.79 442.41 276.57
  L 442.25 276.37
  Q 442.21 276.32 442.16 276.36
  Q 439.73 278.27 437.63 280.68
  Q 430.00 289.41 424.86 299.22
  Q 424.10 300.67 423.75 299.07
  Q 421.54 288.97 419.23 279.76
  Q 418.70 277.67 419.22 275.51
  Q 419.70 273.50 419.94 271.41
  Q 421.40 258.77 426.46 247.09
  Q 426.53 246.94 426.37 246.87
  L 426.14 246.77
  A 0.39 0.38 -65.5 0 0 425.64 246.96
  Q 420.07 259.39 418.58 273.46
  A 0.61 0.60 11.6 0 1 417.80 273.97
  Q 417.46 273.87 417.37 273.53
  Q 413.02 257.08 404.57 238.21
  Q 404.32 237.65 403.79 237.49
  Q 403.10 237.30 403.41 237.94
  C 409.45 250.59 413.05 262.64 417.06 275.45
  Q 417.28 276.13 416.56 276.24
  Q 416.03 276.32 415.57 275.99
  Q 404.16 267.86 392.20 262.64
  Q 391.72 262.43 391.49 262.90
  L 391.36 263.17
  Q 391.24 263.42 391.49 263.55
  Q 402.39 268.81 409.21 273.02
  Q 413.01 275.36 417.10 278.08
  A 2.16 2.16 0.0 0 1 417.98 279.31
  Q 420.66 289.80 422.91 300.05
  Q 423.00 300.47 422.92 300.89
  A 0.44 0.44 0.0 0 1 422.26 301.18
  Q 409.27 293.04 393.87 289.88
  Q 392.96 289.70 393.68 290.29
  Q 394.64 291.10 395.87 291.40
  Q 410.35 295.01 422.80 302.58
  Q 423.21 302.83 423.37 303.28
  Q 423.87 304.67 424.16 306.25
  Q 426.09 316.62 427.52 327.50
  Q 427.60 328.15 427.49 328.78
  A 0.60 0.60 0.0 0 1 426.52 329.14
  Q 414.57 319.62 400.82 315.54
  Q 400.42 315.42 400.30 315.82
  L 400.21 316.10
  Q 400.15 316.27 400.32 316.32
  Q 413.78 320.53 425.10 329.43
  Q 426.98 330.90 427.57 332.98
  Q 428.88 337.55 428.81 341.83
  A 2.26 2.25 -22.9 0 1 428.20 343.32
  C 425.90 345.78 423.99 347.58 424.40 351.38
  Q 424.93 356.30 426.29 361.29
  Q 425.01 361.20 425.35 361.43
  C 420.62 353.05 414.37 347.66 407.96 341.26
  Q 407.06 337.96 409.12 333.53
  Q 410.36 330.87 408.07 328.06
  C 403.94 322.99 396.56 321.71 397.38 313.59
  C 397.86 308.85 399.78 305.05 396.50 300.46
  C 393.38 296.09 388.33 291.30 389.91 285.48
  C 390.85 282.06 394.64 279.80 394.69 276.24
  Q 394.72 274.02 393.94 272.78
  C 389.89 266.29 384.56 259.04 389.08 253.40
  C 390.51 251.61 393.08 250.83 394.91 249.47
  C 397.84 247.30 396.80 241.83 398.00 238.75
  C 398.98 236.22 402.24 234.00 405.04 234.15
  C 410.10 234.43 413.35 238.78 416.28 242.46
  Q 418.04 244.69 422.91 244.23
  Z"
/>
<path fill="#28a7d1" d="
  M 441.38 299.25
  Q 443.84 298.12 444.71 295.47
  Q 445.84 292.04 446.89 288.40
  C 447.61 285.91 449.94 283.64 452.76 284.15
  Q 455.24 284.60 457.68 284.81
  C 460.20 285.02 461.98 283.28 463.78 281.83
  C 467.33 278.98 474.17 278.80 474.07 285.11
  C 474.01 289.15 473.71 291.15 476.96 294.02
  C 481.41 297.96 478.26 302.57 475.16 305.69
  C 473.19 307.67 471.01 310.07 471.63 313.11
  C 472.10 315.43 473.73 317.63 473.32 319.96
  C 472.28 325.90 465.14 327.42 464.50 333.00
  C 464.01 337.26 464.90 342.30 459.62 344.10
  C 454.50 345.86 452.35 347.77 453.35 353.64
  Q 453.75 355.99 451.84 357.28
  Q 448.97 359.22 446.33 361.75
  Q 437.27 362.15 427.88 361.87
  Q 426.63 361.84 426.29 361.29
  Q 424.93 356.30 424.40 351.38
  C 423.99 347.58 425.90 345.78 428.20 343.32
  A 2.26 2.25 -22.9 0 0 428.81 341.83
  Q 428.88 337.55 427.57 332.98
  Q 426.98 330.90 425.10 329.43
  Q 413.78 320.53 400.32 316.32
  Q 400.15 316.27 400.21 316.10
  L 400.30 315.82
  Q 400.42 315.42 400.82 315.54
  Q 414.57 319.62 426.52 329.14
  A 0.60 0.60 0.0 0 0 427.49 328.78
  Q 427.60 328.15 427.52 327.50
  Q 426.09 316.62 424.16 306.25
  Q 423.87 304.67 423.37 303.28
  Q 423.21 302.83 422.80 302.58
  Q 410.35 295.01 395.87 291.40
  Q 394.64 291.10 393.68 290.29
  Q 392.96 289.70 393.87 289.88
  Q 409.27 293.04 422.26 301.18
  A 0.44 0.44 0.0 0 0 422.92 300.89
  Q 423.00 300.47 422.91 300.05
  Q 420.66 289.80 417.98 279.31
  A 2.16 2.16 0.0 0 0 417.10 278.08
  Q 413.01 275.36 409.21 273.02
  Q 402.39 268.81 391.49 263.55
  Q 391.24 263.42 391.36 263.17
  L 391.49 262.90
  Q 391.72 262.43 392.20 262.64
  Q 404.16 267.86 415.57 275.99
  Q 416.03 276.32 416.56 276.24
  Q 417.28 276.13 417.06 275.45
  C 413.05 262.64 409.45 250.59 403.41 237.94
  Q 403.10 237.30 403.79 237.49
  Q 404.32 237.65 404.57 238.21
  Q 413.02 257.08 417.37 273.53
  Q 417.46 273.87 417.80 273.97
  A 0.61 0.60 11.6 0 0 418.58 273.46
  Q 420.07 259.39 425.64 246.96
  A 0.39 0.38 -65.5 0 1 426.14 246.77
  L 426.37 246.87
  Q 426.53 246.94 426.46 247.09
  Q 421.40 258.77 419.94 271.41
  Q 419.70 273.50 419.22 275.51
  Q 418.70 277.67 419.23 279.76
  Q 421.54 288.97 423.75 299.07
  Q 424.10 300.67 424.86 299.22
  Q 430.00 289.41 437.63 280.68
  Q 439.73 278.27 442.16 276.36
  Q 442.21 276.32 442.25 276.37
  L 442.41 276.57
  Q 442.60 276.79 442.39 276.99
  Q 432.83 285.79 426.59 298.27
  C 425.77 299.92 424.10 301.02 424.53 303.11
  Q 426.83 314.39 428.24 323.93
  Q 428.76 327.48 430.75 324.50
  L 435.63 317.16
  Q 435.97 316.65 435.88 316.04
  C 435.45 312.95 434.99 309.43 435.42 306.34
  Q 435.73 304.15 436.98 305.97
  Q 442.91 314.55 446.01 325.11
  Q 446.27 325.99 445.93 326.86
  Q 442.79 334.92 440.34 341.81
  Q 439.61 343.88 438.91 341.79
  Q 436.48 334.48 431.29 327.08
  Q 431.13 326.85 430.85 326.80
  Q 430.69 326.76 430.61 326.99
  Q 430.55 327.14 430.60 327.30
  Q 431.11 328.93 431.86 330.05
  Q 436.35 336.72 438.54 344.76
  Q 438.96 346.30 437.82 350.47
  Q 436.79 354.25 435.73 358.07
  A 0.28 0.28 0.0 0 0 435.87 358.40
  L 436.17 358.56
  Q 436.38 358.67 436.46 358.45
  Q 438.06 353.89 439.35 348.92
  C 439.59 348.01 439.98 347.16 440.85 346.71
  Q 449.70 342.12 457.58 340.73
  Q 459.55 340.39 461.47 339.94
  Q 462.05 339.81 461.71 339.32
  Q 461.55 339.09 461.28 339.12
  Q 453.03 340.08 449.00 341.80
  Q 445.39 343.33 441.66 344.86
  Q 440.79 345.22 440.54 344.35
  A 0.32 0.28 52.3 0 1 440.55 344.18
  L 446.97 327.42
  Q 447.17 326.89 447.71 326.71
  Q 457.82 323.28 468.22 322.14
  Q 468.34 322.13 468.33 322.01
  L 468.31 321.76
  Q 468.28 321.42 467.94 321.44
  Q 457.93 322.00 448.98 325.30
  A 0.68 0.68 0.0 0 1 448.12 324.39
  L 454.43 310.36
  Q 454.67 309.83 455.21 309.62
  Q 464.87 305.76 474.79 302.61
  Q 474.94 302.56 474.90 302.40
  L 474.90 302.40
  Q 474.86 302.21 474.67 302.25
  Q 466.41 303.88 458.47 307.64
  Q 457.85 307.94 457.19 308.03
  Q 454.87 308.38 456.07 306.36
  Q 458.78 301.81 461.37 297.09
  Q 465.09 290.28 470.25 283.09
  Q 470.49 282.75 470.15 282.51
  L 469.95 282.37
  A 0.32 0.32 0.0 0 0 469.51 282.45
  Q 462.12 293.17 456.65 303.76
  Q 454.47 307.98 454.95 303.25
  Q 455.67 296.15 453.65 287.60
  Q 453.47 286.85 452.91 286.28
  Q 452.17 285.52 452.45 286.55
  Q 454.24 293.13 453.88 299.74
  Q 453.73 302.63 454.01 305.59
  Q 454.29 308.43 453.13 310.89
  Q 450.31 316.85 447.63 322.99
  Q 446.96 324.52 446.44 322.93
  Q 442.89 311.91 436.87 303.91
  Q 436.56 303.49 436.89 303.08
  Q 438.65 300.92 441.38 299.25
  Z"
/>
<path fill="#fffffb" d="
  M 140.51 248.63
  C 140.43 246.18 138.31 244.57 138.40 242.35
  C 138.64 236.67 144.07 237.81 147.92 237.66
  C 152.19 237.50 155.07 240.17 153.35 244.67
  Q 152.56 246.73 150.43 246.91
  Q 147.51 247.17 144.48 247.23
  C 143.19 247.26 142.32 248.20 141.45 249.02
  A 0.56 0.56 0.0 0 1 140.51 248.63
  Z"
/>
<path fill="#fffffb" d="
  M 160.40 241.13
  Q 159.98 240.85 159.46 240.73
  Q 158.58 240.53 159.11 239.80
  Q 160.18 238.33 161.95 237.98
  A 0.81 0.80 82.6 0 1 162.91 238.73
  C 163.01 240.57 163.48 245.61 162.32 247.04
  A 0.64 0.64 0.0 0 1 161.18 246.67
  L 160.94 242.08
  A 1.22 1.21 15.5 0 0 160.40 241.13
  Z"
/>
<path fill="#9b87fe" d="
  M 204.07 245.44
  L 209.66 251.32
  Q 210.76 259.28 213.77 267.09
  Q 214.41 268.75 213.53 268.56
  Q 210.28 267.70 208.55 265.94
  Q 200.08 257.31 204.07 245.44
  Z"
/>
<path fill="#0a2e4e" d="
  M 270.29 268.88
  Q 267.26 272.19 263.45 274.04
  Q 263.04 274.29 262.69 273.28
  Q 262.76 273.09 262.83 272.90
  Q 263.00 270.18 265.39 268.46
  Q 265.81 268.15 266.32 268.24
  L 270.29 268.88
  Z"
/>
<path fill="#dacdfd" d="
  M 322.04 272.89
  C 325.83 268.71 332.35 267.61 335.79 272.98
  C 341.41 281.75 328.03 291.78 322.03 295.80
  A 1.10 1.09 -46.2 0 1 320.88 295.83
  C 314.41 292.05 304.25 284.13 305.49 275.96
  C 306.30 270.55 312.03 267.58 316.91 270.35
  Q 318.80 271.42 320.44 272.95
  A 1.13 1.12 -47.1 0 0 322.04 272.89
  Z"
/>
<path fill="#e2785d" d="
  M 262.69 273.28
  Q 263.04 274.29 263.45 274.04
  L 262.41 282.04
  C 259.63 284.23 257.37 287.21 254.95 289.04
  C 247.64 294.56 239.26 296.51 230.26 293.99
  Q 229.91 293.89 229.84 293.27
  Q 230.97 290.26 230.96 287.31
  C 243.04 291.40 254.68 285.30 260.82 274.79
  Q 261.06 274.37 261.53 274.23
  Q 262.36 273.97 262.69 273.28
  Z"
/>
<path fill="#f9a17c" d="
  M 262.41 282.04
  L 263.16 293.36
  Q 264.17 297.33 264.22 299.00
  C 264.66 314.51 239.70 315.66 231.62 307.40
  Q 226.70 302.36 229.56 293.96
  Q 229.93 293.44 229.84 293.27
  Q 229.91 293.89 230.26 293.99
  C 239.26 296.51 247.64 294.56 254.95 289.04
  C 257.37 287.21 259.63 284.23 262.41 282.04
  Z"
/>
<path fill="#28a7d1" d="
  M 263.16 293.36
  L 270.31 294.70
  Q 270.08 296.87 269.96 298.92
  C 269.51 306.82 264.08 313.94 256.66 316.37
  Q 246.23 319.77 236.12 316.92
  C 228.80 314.85 223.31 307.43 225.65 299.74
  Q 226.69 296.34 227.01 294.74
  L 229.56 293.96
  Q 226.70 302.36 231.62 307.40
  C 239.70 315.66 264.66 314.51 264.22 299.00
  Q 264.17 297.33 263.16 293.36
  Z"
/>
<path fill="#3dc8e9" d="
  M 227.01 294.74
  Q 226.69 296.34 225.65 299.74
  C 223.31 307.43 228.80 314.85 236.12 316.92
  Q 246.23 319.77 256.66 316.37
  C 264.08 313.94 269.51 306.82 269.96 298.92
  Q 270.08 296.87 270.31 294.70
  Q 289.80 301.66 297.20 304.84
  Q 300.48 306.24 304.43 310.07
  Q 315.47 320.75 323.39 334.67
  Q 336.43 357.57 349.37 381.67
  C 353.78 389.87 361.19 407.98 348.45 413.46
  Q 346.04 414.00 345.00 414.00
  Q 323.60 414.10 257.71 413.94
  Q 258.85 412.73 258.67 411.50
  Q 257.55 403.79 250.01 404.20
  Q 250.65 401.99 253.00 401.43
  Q 259.26 399.95 274.36 397.61
  Q 281.83 396.45 293.53 393.85
  L 315.03 390.01
  A 0.51 0.50 -22.6 0 0 315.36 389.22
  L 298.79 365.54
  L 293.74 357.01
  A 0.41 0.41 0.0 0 0 293.01 357.08
  Q 291.46 361.51 289.68 366.33
  C 286.87 373.92 282.77 379.23 275.44 383.14
  Q 267.53 387.37 257.83 390.28
  Q 245.93 393.85 234.01 397.11
  Q 231.33 397.84 228.72 399.04
  Q 226.29 400.16 223.66 401.19
  L 217.56 403.14
  L 194.41 403.24
  Q 194.96 397.72 193.70 393.15
  Q 194.62 388.09 193.50 382.27
  Q 193.39 381.42 193.48 379.92
  Q 193.54 378.75 193.47 377.58
  C 192.30 358.76 192.75 339.55 197.04 320.97
  Q 198.06 316.56 199.47 312.68
  Q 199.84 311.66 200.99 310.09
  Q 202.33 308.24 201.74 307.01
  Q 207.53 303.16 216.14 298.89
  Q 221.86 296.04 227.01 294.74
  Z"
/>
<path fill="#28a7d1" d="
  M 201.74 307.01
  Q 202.33 308.24 200.99 310.09
  Q 199.84 311.66 199.47 312.68
  Q 198.06 316.56 197.04 320.97
  C 192.75 339.55 192.30 358.76 193.47 377.58
  Q 193.54 378.75 193.48 379.92
  Q 193.39 381.42 193.50 382.27
  Q 189.22 386.80 185.84 391.10
  Q 184.78 392.46 184.28 394.33
  Q 184.36 393.75 183.76 393.85
  A 0.34 0.29 -68.0 0 0 183.55 393.96
  L 174.64 403.10
  L 170.29 403.22
  A 1.68 1.67 83.5 0 1 168.60 401.87
  Q 165.08 384.27 161.76 367.26
  Q 161.56 366.24 162.04 364.59
  C 169.89 349.22 177.81 333.46 187.94 319.47
  Q 193.42 311.91 201.74 307.01
  Z"
/>
<path fill="#b9d1cf" d="
  M 82.39 323.33
  Q 82.95 324.06 85.75 324.03
  Q 134.41 323.57 150.25 323.93
  Q 153.40 324.01 154.13 327.74
  Q 157.58 345.56 161.14 363.74
  Q 161.31 364.65 162.04 364.59
  Q 161.56 366.24 161.76 367.26
  Q 165.08 384.27 168.60 401.87
  A 1.68 1.67 83.5 0 0 170.29 403.22
  L 174.64 403.10
  L 194.41 403.24
  L 217.56 403.14
  Q 214.98 406.17 211.17 408.15
  Q 209.23 409.16 206.28 413.94
  L 163.79 413.80
  Q 165.15 411.15 164.58 408.23
  Q 162.79 399.07 160.90 390.06
  C 156.85 370.81 153.05 349.25 149.62 332.81
  Q 148.79 328.83 144.58 328.82
  Q 96.58 328.76 45.24 328.80
  Q 43.29 328.80 44.53 327.30
  L 45.27 326.41
  A 4.33 4.33 0.0 0 1 48.44 324.83
  L 82.39 323.33
  Z"
/>
<path fill="#28a7d1" d="
  M 298.79 365.54
  Q 295.31 379.93 293.53 393.85
  Q 281.83 396.45 274.36 397.61
  Q 259.26 399.95 253.00 401.43
  Q 250.65 401.99 250.01 404.20
  Q 247.76 405.20 245.87 404.63
  Q 234.48 401.19 223.66 401.19
  Q 226.29 400.16 228.72 399.04
  Q 231.33 397.84 234.01 397.11
  Q 245.93 393.85 257.83 390.28
  Q 267.53 387.37 275.44 383.14
  C 282.77 379.23 286.87 373.92 289.68 366.33
  Q 291.46 361.51 293.01 357.08
  A 0.41 0.41 0.0 0 1 293.74 357.01
  L 298.79 365.54
  Z"
/>
<path fill="#ffc73d" d="
  M 425.35 361.43
  Q 425.01 361.20 426.29 361.29
  Q 426.63 361.84 427.88 361.87
  Q 437.27 362.15 446.33 361.75
  L 457.37 361.92
  Q 459.01 361.94 459.01 363.59
  L 459.00 371.91
  A 1.08 1.08 0.0 0 1 457.84 372.99
  C 453.61 372.65 453.66 375.26 453.07 378.35
  Q 449.70 395.72 446.61 414.18
  L 420.51 413.87
  Q 417.47 394.21 414.17 375.50
  C 413.84 373.59 411.71 373.10 410.10 372.87
  A 1.46 1.45 -86.8 0 1 408.85 371.46
  L 408.67 363.84
  Q 408.64 362.24 410.23 362.16
  L 425.35 361.43
  Z"
/>
<ellipse fill="#b9d1cf" cx="0.00" cy="0.00" transform="translate(100.59,370.10) rotate(43.5)" rx="9.70" ry="8.05"/>
<path fill="#f5f5ff" d="
  M 293.53 393.85
  Q 295.31 379.93 298.79 365.54
  L 315.36 389.22
  A 0.51 0.50 -22.6 0 1 315.03 390.01
  L 293.53 393.85
  Z"
/>
<path fill="#9b87fe" d="
  M 394.97 371.83
  L 395.38 381.01
  A 1.35 1.35 0.0 0 0 396.78 382.30
  Q 404.92 382.00 408.44 388.26
  C 413.73 397.68 406.63 407.47 396.43 407.44
  A 1.30 1.29 9.0 0 0 395.20 408.33
  L 393.34 413.89
  L 368.14 413.82
  Q 365.83 411.15 365.81 409.20
  Q 365.60 390.85 365.67 372.47
  A 0.67 0.67 0.0 0 1 366.34 371.80
  L 394.97 371.83
  Z
  M 395.39 387.62
  L 395.27 402.14
  A 1.59 1.59 0.0 0 0 396.84 403.75
  L 397.36 403.75
  A 8.81 8.71 0.5 0 0 406.25 395.12
  L 406.25 394.84
  A 8.81 8.71 0.5 0 0 397.52 386.05
  L 397.00 386.05
  A 1.59 1.59 0.0 0 0 395.39 387.62
  Z"
/>
<path fill="#f5f5ff" d="
  M 193.70 393.15
  Q 194.96 397.72 194.41 403.24
  L 174.64 403.10
  L 183.55 393.96
  A 0.34 0.29 -68.0 0 1 183.76 393.85
  Q 184.36 393.75 184.28 394.33
  Q 189.06 396.01 193.70 393.15
  Z"
/>
<path fill="#f9a17c" d="
  M 223.66 401.19
  Q 234.48 401.19 245.87 404.63
  Q 247.76 405.20 250.01 404.20
  Q 257.55 403.79 258.67 411.50
  Q 258.85 412.73 257.71 413.94
  L 206.28 413.94
  Q 209.23 409.16 211.17 408.15
  Q 214.98 406.17 217.56 403.14
  L 223.66 401.19
  Z"
/>
<path fill="#dacdfd" d="
  M 163.79 413.80
  L 206.28 413.94
  L 257.71 413.94
  Q 323.60 414.10 345.00 414.00
  Q 346.04 414.00 348.45 413.46
  Q 348.17 414.17 348.75 414.15
  Q 358.12 413.88 367.50 413.99
  Q 368.06 414.00 368.14 413.82
  L 393.34 413.89
  C 396.08 414.30 399.03 413.99 401.22 414.15
  Q 408.97 414.68 416.74 414.28
  Q 418.77 414.17 420.51 413.87
  L 446.61 414.18
  Q 457.56 414.01 468.25 414.69
  C 473.84 415.04 476.54 421.71 473.12 425.94
  C 470.84 428.77 466.23 428.97 462.75 428.96
  Q 390.56 428.92 312.00 428.97
  Q 229.70 429.03 146.75 428.93
  Q 93.10 428.86 39.46 428.78
  Q 35.19 428.78 33.19 427.83
  C 26.71 424.75 28.10 414.93 35.80 414.61
  Q 40.65 414.41 46.00 414.41
  Q 108.02 414.50 159.75 414.18
  Q 160.84 414.17 163.79 413.80
  Z"
/>
</svg>
